<?xml version="1.0" encoding="UTF-8"?>
<svg id="_レイヤー_2" data-name="レイヤー 2" xmlns="http://www.w3.org/2000/svg" viewBox="0 0 333.85 458.48">
  <defs>
    <style>
      .cls-1 {
        fill: #231815;
      }

      .cls-2 {
        fill: #fff;
        stroke: #231815;
        stroke-miterlimit: 10;
        stroke-width: .99px;
      }

      .cls-3 {
        fill: #f4b4d0;
      }
    </style>
  </defs>
  <g id="_レイヤー_1-2" data-name="レイヤー 1">
    <g>
      <g>
        <path class="cls-2" d="M324.07,284.78c-43.61-15.1-74.64-53.76-74.64-99.09,0-21.66,7.09-41.79,19.24-58.56-1.29.04-2.59.07-3.89.07-51.25,0-94.69-30.71-109.69-73.17-15,42.47-58.44,73.17-109.69,73.17-.92,0-1.84-.01-2.76-.03,12.14,16.76,19.22,36.88,19.22,58.52,0,35.34-18.87,66.63-47.85,85.86-6.52,23.65-12.78,46.61-13.49,69.55-1.57,51.12,52.48,116.88,166.4,116.88,124.71,0,166.46-57.41,166.43-113.58,0-16.98-4.11-38.21-9.29-59.63Z"/>
        <path class="cls-1" d="M151.77.28C99,3.29,43.9,30.5,32.34,75.06c-3.24,12.49-4.43,24.03-4.64,35.44,5.57,5.07,10.58,10.66,14.94,16.68.92.02,1.83.03,2.76.03,51.25,0,94.69-30.71,109.69-73.17-3.64-10.3-5.61-21.28-5.61-32.69,0-7.21.79-14.25,2.28-21.05Z"/>
        <path class="cls-1" d="M61.87,185.7c0-21.64-7.08-41.76-19.22-58.52-4.98-.11-9.89-.5-14.7-1.17,1.02,24.45,4.38,50.01-.15,84.69-2.74,21.02-8.35,41.18-13.79,60.87,28.99-19.23,47.85-50.52,47.85-85.86Z"/>
        <path class="cls-1" d="M27.71,110.49c-.09,5.17.02,10.31.24,15.51,4.81.67,9.71,1.07,14.7,1.17-4.36-6.02-9.36-11.61-14.94-16.68Z"/>
        <path class="cls-1" d="M249.44,185.7c0,45.32,31.03,83.99,74.64,99.09-7.45-30.81-17.14-61.99-20.14-81.39-4.99-32.35-2.83-58.46-3-81.5-10.2,3.09-21.03,4.91-32.26,5.25-12.15,16.77-19.24,36.9-19.24,58.56Z"/>
        <path class="cls-1" d="M155.09,54.03c15,42.47,58.44,73.17,109.69,73.17,1.3,0,2.6-.03,3.89-.07,8.17-11.28,18.63-21.04,30.78-28.71-1.04-7.33-2.75-14.44-5.54-21.43C274.98,29.52,224.39-.29,160.71,0c-.78,0-1.56.03-2.33.04,1.53,6.88,2.33,14,2.33,21.29,0,11.41-1.97,22.4-5.61,32.69Z"/>
        <path class="cls-1" d="M149.48,21.34c0,11.41,1.97,22.4,5.61,32.69,3.64-10.3,5.61-21.28,5.61-32.69,0-7.29-.8-14.41-2.33-21.29-2.2.04-4.4.11-6.61.24-1.5,6.8-2.28,13.84-2.28,21.05Z"/>
        <path class="cls-1" d="M268.68,127.14c11.23-.34,22.06-2.16,32.26-5.25-.06-8.16-.41-15.94-1.48-23.46-12.15,7.67-22.61,17.43-30.78,28.71Z"/>
      </g>
      <ellipse class="cls-3" cx="53.18" cy="318.77" rx="25.5" ry="23.41"/>
      <ellipse class="cls-3" cx="284.81" cy="318.77" rx="25.5" ry="23.41"/>
    </g>
  </g>
</svg>