<?xml version="1.0" encoding="UTF-8"?>
<svg version="1.1" xmlns="http://www.w3.org/2000/svg" width="2596" height="1147">
<path d="M0 0 C1.93391638 0.13025132 3.86783576 0.26045794 5.80175781 0.390625 C116.84315599 7.98178377 226.58164942 28.13648003 518 124 C518.71698059 124.29370483 519.43396118 124.58740967 520.17266846 124.89001465 C528.15697152 128.16546046 536.09531491 131.53706137 544 135 C544.65194336 135.28556763 545.30388672 135.57113525 545.97558594 135.86535645 C577.97790506 149.89495773 609.63580412 164.59692964 641 180 C642.00211517 180.49203918 642.00211517 180.49203918 643.0244751 180.99401855 C657.97544066 188.34140221 672.81471825 195.84096329 687.390625 203.9140625 C692.06667908 206.50120977 696.77763578 209.01794571 701.49880981 211.52163696 C714.3874521 218.35807902 727.08997772 225.44106374 739.65625 232.859375 C744.15264572 235.51345343 748.68526832 238.09078089 753.25 240.625 C784.15216786 257.85544489 813.93840657 277.27591297 843.46972656 296.73217773 C846.26097873 298.56972757 849.05621339 300.40111233 851.8515625 302.23242188 C862.76230678 309.40291727 873.44945026 316.81049963 883.97802734 324.53038025 C887.45765172 327.05945733 890.97936624 329.52850579 894.5 332 C908.56301467 341.90478287 922.45421384 351.99201305 936.06738281 362.50830078 C937.86221144 363.89364728 939.66059781 365.27417067 941.4609375 366.65234375 C957.73185711 379.11341586 973.81134572 391.81802394 989.41162109 405.11279297 C992.79986732 407.99782384 996.22873639 410.82504851 999.6875 413.625 C1004.13903808 417.24834495 1008.42382455 421.01963872 1012.66796875 424.8828125 C1014.75823889 426.78051169 1016.86986115 428.64733415 1019 430.5 C1022.85388274 433.85860464 1026.65498241 437.27346666 1030.44921875 440.69921875 C1032.07327337 442.1641011 1033.70053785 443.62543831 1035.33203125 445.08203125 C1049.41100351 457.6667179 1062.92802523 470.76645569 1076.26416016 484.13378906 C1079.02001355 486.89505284 1081.78124028 489.6508636 1084.54296875 492.40625 C1086.32063359 494.18457492 1088.09798859 495.96320963 1089.875 497.7421875 C1090.68864014 498.55380341 1091.50228027 499.36541931 1092.34057617 500.20162964 C1096.55831911 504.43659617 1100.6269052 508.74333165 1104.51870728 513.28059387 C1106.73700821 515.85548009 1109.05851913 518.32558736 1111.375 520.8125 C1115.6687538 525.46038542 1119.7353184 530.24416348 1123.703125 535.17578125 C1125.72540221 537.6623568 1127.79175688 540.10304082 1129.88232422 542.53222656 C1136.9422873 550.75414716 1143.52254586 559.31453917 1150 568 C1150.54446777 568.72880371 1151.08893555 569.45760742 1151.64990234 570.20849609 C1163.66704372 586.36824787 1174.50546972 603.23531676 1184 621 C1184.3398291 621.63437988 1184.6796582 622.26875977 1185.02978516 622.92236328 C1201.60945486 654.18665675 1213.16842636 689.2880312 1203.00390625 724.4453125 C1196.08272526 744.32275271 1180.68552149 758.70938832 1162.1796875 767.9765625 C1119.25709659 788.2448054 1068.11474386 788.61027094 1021.5625 789.625 C1020.62328705 789.64564514 1019.6840741 789.66629028 1018.71640015 789.68756104 C994.67299778 790.19656372 970.63654924 790.02690426 946.59222198 789.65645218 C944.50262678 789.62425809 942.41302333 789.59263722 940.32341957 789.56100464 C904.02994826 789.00621652 867.74573096 788.0679533 831.46038818 787.13537598 C818.26894716 786.79645298 805.07739912 786.46173552 791.88578683 786.12954998 C787.78653473 786.02620945 783.6873043 785.92214962 779.58812523 785.81594849 C768.39248505 785.52590606 757.19655616 785.25236236 746 785 C744.54127098 784.96710707 744.54127098 784.96710707 743.05307269 784.93354964 C710.71283055 784.21063017 678.38627917 783.83669484 646.03817534 783.83274293 C642.64502484 783.83201287 639.25187798 783.82984372 635.85872841 783.82724571 C623.84893169 783.81809339 611.83914579 783.81389731 599.8293457 783.81469727 C590.11643816 783.8152277 580.40357109 783.8082053 570.69067383 783.79418945 C511.76331072 783.71110453 452.89775218 784.03345048 394 786 C393.20599375 786.02644309 392.41198751 786.05288618 391.59392047 786.08013058 C364.31865152 786.98917716 364.31865152 786.98917716 337.05078125 788.09375 C335.88690604 788.14451439 335.88690604 788.14451439 334.6995182 788.19630432 C247.12563045 792.02774899 159.65029226 797.96580875 -197 838 C-197.79358665 838.11298431 -198.58717331 838.22596863 -199.40480804 838.34237671 C-284.25819656 850.43616262 -368.85426242 864.70319773 -453 881 C-453.91007561 881.17625412 -454.82015121 881.35250824 -455.75780487 881.53410339 C-535.9833574 897.08532206 -615.87088046 914.10221055 -695.33691406 933.16503906 C-701.47158695 934.63627118 -707.60970504 936.09233875 -713.74951172 937.54197693 C-795.96245341 956.96633602 -877.62574716 978.91161997 -1097.51525879 1044.8885498 C-1101.08353886 1046.02664453 -1104.65256995 1047.16236163 -1108.22167969 1048.29785156 C-1165.51721641 1066.5411594 -1222.5382076 1085.63174437 -1279.12640381 1105.96856689 C-1283.10183898 1107.39548814 -1287.07962187 1108.81581119 -1291.05725098 1110.23660278 C-1309.75845107 1116.91948488 -1328.43789238 1123.65664237 -1347.05078125 1130.58203125 C-1347.67636177 1130.81463717 -1348.30194229 1131.04724308 -1348.9464798 1131.28689766 C-1355.66065307 1133.78341491 -1362.37194639 1136.28734211 -1369.07861328 1138.80395508 C-1371.26982098 1139.62200344 -1373.46106266 1140.43996077 -1375.65234375 1141.2578125 C-1376.65920731 1141.63811111 -1377.66607086 1142.01840973 -1378.70344543 1142.41023254 C-1379.62493881 1142.75325912 -1380.54643219 1143.09628571 -1381.49584961 1143.44970703 C-1382.29768173 1143.7507132 -1383.09951385 1144.05171936 -1383.92564392 1144.36184692 C-1386 1145 -1386 1145 -1389 1145 C-1387.6924865 1137.86953672 -1385.96221062 1130.94492146 -1383.9453125 1123.984375 C-1383.64801239 1122.94786804 -1383.35071228 1121.91136108 -1383.04440308 1120.84344482 C-1382.07653621 1117.4774172 -1381.10158668 1114.11350744 -1380.125 1110.75 C-1379.78919922 1109.59040771 -1379.45339844 1108.43081543 -1379.10742188 1107.23608398 C-1361.97094583 1048.1241838 -1342.13094437 989.91408631 -1318.79827881 932.94946289 C-1317.96379307 930.91157967 -1317.13155798 928.872785 -1316.29931641 926.83398438 C-1290.97296124 864.8777772 -1263.05009482 803.22085237 -1230.48925781 744.70507812 C-1228.25194378 740.64123558 -1226.0794373 736.54334882 -1223.89819336 732.44921875 C-1217.57752415 720.59981328 -1210.97623117 708.95117319 -1204.15625 697.3828125 C-1201.59834542 693.04070915 -1199.12177951 688.66213161 -1196.6875 684.25 C-1186.66647306 666.20779875 -1175.5691231 648.69483793 -1164.46582031 631.30615234 C-1162.95288799 628.9258794 -1161.45570229 626.53624958 -1159.9609375 624.14453125 C-1144.77051048 599.92663727 -1128.57946835 576.28547651 -1112 553 C-1111.21786133 551.89809326 -1111.21786133 551.89809326 -1110.41992188 550.77392578 C-1102.10354689 539.07742907 -1093.45431921 527.65105133 -1084.72558594 516.26025391 C-1082.58749371 513.45967979 -1080.47841203 510.63920427 -1078.375 507.8125 C-1069.53180097 495.98768597 -1060.41567234 484.37356262 -1051 473 C-1049.5411501 471.20875392 -1048.08282976 469.41707644 -1046.625 467.625 C-1042.83128037 462.98529411 -1038.9716714 458.4056355 -1035.08862305 453.84082031 C-1032.15762739 450.388975 -1029.28303529 446.89804369 -1026.4375 443.375 C-1022.56420728 438.61479947 -1018.49240008 434.07195216 -1014.33984375 429.5546875 C-1012.34165152 427.37302185 -1010.37851111 425.16988691 -1008.4375 422.9375 C-1005.10212239 419.10220631 -1001.70691569 415.32328982 -998.30078125 411.55078125 C-996.8358989 409.92672663 -995.37456169 408.29946215 -993.91796875 406.66796875 C-984.18504294 395.77937086 -974.26266422 385.08741155 -963.81640625 374.87890625 C-961.66438914 372.73224908 -959.66444009 370.48942854 -957.6796875 368.1875 C-953.82929185 363.7425541 -949.73065352 359.58314324 -945.5625 355.4375 C-944.85029297 354.72142578 -944.13808594 354.00535156 -943.40429688 353.26757812 C-939.37143131 349.24203838 -935.23289195 345.41903203 -930.91772461 341.69946289 C-927.80332899 338.93952554 -924.91002234 335.9721478 -922 333 C-917.86809254 328.82510285 -913.7301979 324.7555214 -909.2421875 320.9609375 C-905.97477483 318.1033745 -902.84407714 315.10391229 -899.6875 312.125 C-894.51342875 307.25629841 -889.23014104 302.6422904 -883.67578125 298.20703125 C-880.68502339 295.74020178 -877.83656394 293.14010965 -875 290.5 C-870.4173114 286.24139185 -865.70055215 282.22020173 -860.82421875 278.296875 C-858.33746446 276.27445243 -855.89669795 274.20780011 -853.46704102 272.11743164 C-847.29173889 266.81335754 -840.92551683 261.81664721 -834.43457031 256.9050293 C-829.76542105 253.36768432 -825.17470115 249.75176226 -820.625 246.0625 C-807.27736974 235.28900453 -793.26031846 225.37632432 -779.20849609 215.54931641 C-776.90028709 213.93004885 -774.60009158 212.29984366 -772.30078125 210.66796875 C-759.74434173 201.78021078 -746.9429699 193.31300224 -734 185 C-733.19771973 184.48228027 -732.39543945 183.96456055 -731.56884766 183.43115234 C-709.89170869 169.46000841 -687.55715708 156.49165914 -665 144 C-664.06091797 143.47825195 -663.12183594 142.95650391 -662.15429688 142.41894531 C-632.16886328 125.82457249 -601.39986153 110.28382361 -569.88446045 96.80615234 C-567.89593443 95.95548184 -565.9091614 95.10079137 -563.92236328 94.24609375 C-528.5947314 79.0839035 -492.63397982 65.65407928 -456 54 C-455.19725647 53.74345642 -454.39451294 53.48691284 -453.56744385 53.22259521 C-361.50609576 23.83195827 -266.07705615 6.90097611 -169.74621582 0.19140625 C-167.98166997 0.06842061 -166.21725205 -0.05642238 -164.45300293 -0.18359375 C-110.08921193 -4.09641721 -54.36027149 -3.78210891 0 0 Z " fill="#000000" transform="translate(1389,2)"/>
<path d="M0 0 C-3.05079455 2.03386304 -5.9066884 3.27408415 -9.30078125 4.65234375 C-10.59004536 5.18049772 -11.87909929 5.70916495 -13.16796875 6.23828125 C-14.18189697 6.65327881 -14.18189697 6.65327881 -15.21630859 7.07666016 C-29.13280454 12.79172709 -42.72399924 18.9014538 -56 26 C-56.91088379 26.4837207 -57.82176758 26.96744141 -58.76025391 27.46582031 C-81.91241245 39.86117912 -103.64709104 54.78799176 -124 71.375 C-124.67369629 71.92317383 -125.34739258 72.47134766 -126.04150391 73.03613281 C-131.28176265 77.33615077 -136.30794829 81.82000585 -141.26171875 86.4453125 C-143.87021925 88.87892067 -146.51990864 91.25653947 -149.1875 93.625 C-155.82679768 99.59398397 -162.14675038 105.82372631 -167.94921875 112.61328125 C-169.5575415 114.48506259 -171.18541218 116.33029654 -172.83203125 118.16796875 C-189.42436595 136.80902473 -203.48994082 157.44011077 -216 179 C-216.39155273 179.66805664 -216.78310547 180.33611328 -217.18652344 181.02441406 C-247.83237995 233.54958473 -263.14548836 293.43026268 -263.3125 354.0625 C-263.31578308 355.04078766 -263.31906616 356.01907532 -263.32244873 357.02700806 C-263.33733272 370.84651584 -262.74103801 384.46073655 -261.125 398.1875 C-261.03795807 398.92727081 -260.95091614 399.66704163 -260.86123657 400.42922974 C-259.90490229 408.35566911 -258.7066125 416.19869966 -257 424 C-256.83612793 424.7943042 -256.67225586 425.5886084 -256.50341797 426.40698242 C-254.17757504 437.63522796 -251.3534469 448.6587069 -248 459.625 C-247.68015137 460.67816406 -247.36030273 461.73132813 -247.03076172 462.81640625 C-244.76286744 470.07183807 -242.00506007 477.02178266 -239 484 C-238.31954007 485.63976567 -237.64104215 487.28034739 -236.96484375 488.921875 C-225.03787278 517.49672623 -210.60681373 544.94442447 -191.33642578 569.29882812 C-190.03252303 570.95860057 -188.75991358 572.6376972 -187.49609375 574.328125 C-173.80202932 592.59144592 -158.25329166 610.0509877 -141 625 C-139.24838168 626.62325545 -137.4984627 628.24834602 -135.75 629.875 C-129.43280227 635.6098862 -122.79439756 640.84800571 -116 646 C-115.27216309 646.55236328 -114.54432617 647.10472656 -113.79443359 647.67382812 C-96.30796289 660.88369626 -78.18500346 672.41611356 -59 683 C-58.11634766 683.49113281 -57.23269531 683.98226562 -56.32226562 684.48828125 C-21.67680708 703.61519864 16.37361555 717.47029571 55 726 C55 726.66 55 727.32 55 728 C54.37568588 728.08023911 53.75137177 728.16047821 53.10813904 728.2431488 C-20.47680283 737.71041375 -93.85006952 748.4016121 -167.04931641 760.51245117 C-170.02352679 761.00388739 -172.99803811 761.4934602 -175.97265625 761.98242188 C-180.78621986 762.77366851 -185.59932363 763.56765006 -190.41204834 764.36398315 C-192.18328925 764.65681232 -193.95464664 764.94893801 -195.72613525 765.24026489 C-204.94501937 766.7578894 -214.11445342 768.39380947 -223.26953125 770.26538086 C-229.39778662 771.47218193 -235.55827587 772.47990774 -241.71905518 773.50497437 C-253.87776642 775.53298732 -265.97324544 777.7193145 -278.02661133 780.31152344 C-284.39528492 781.68002643 -290.7725469 782.88375253 -297.19360352 783.97729492 C-302.61076992 784.90740842 -307.96844274 786.03904498 -313.33544922 787.22045898 C-316.75150641 787.94713924 -320.17011119 788.60221836 -323.60546875 789.23046875 C-335.19415532 791.37835226 -346.74685568 793.71190948 -358.30371094 796.02368164 C-362.19936418 796.80283635 -366.09580156 797.5780333 -369.9921875 798.35351562 C-387.02801357 801.75304296 -404.02385577 805.31452602 -421 809 C-422.51526332 809.32755989 -424.0305579 809.65497527 -425.54589844 809.98217773 C-454.36441587 816.21949305 -483.17412304 822.53734729 -511.81616211 829.54467773 C-520.74427568 831.72138492 -529.6987578 833.75446389 -538.6809082 835.69604492 C-560.60361284 840.47212024 -582.35176602 846.04703043 -604.11474609 851.49609375 C-607.8977694 852.44328643 -611.68132579 853.38833026 -615.46503639 854.33277321 C-618.44421772 855.07665615 -621.42311279 855.82168032 -624.40192795 856.56702805 C-625.79615083 856.91574739 -627.19045702 857.26413389 -628.58485794 857.61214066 C-636.94401154 859.69914387 -645.28107603 861.85363753 -653.60083008 864.09153748 C-658.07651998 865.28771085 -662.56387382 866.43631646 -667.05175781 867.58569336 C-676.14024112 869.91523481 -685.18844042 872.29095149 -694.16552734 875.01977539 C-701.3884158 877.17902613 -708.69681581 879.01098719 -716 880.875 C-728.71341263 884.12208925 -741.36327728 887.55687727 -753.98486328 891.14550781 C-758.0565536 892.29942815 -762.13314104 893.435504 -766.2097168 894.57202148 C-780.82532003 898.64884212 -795.41708364 902.80791111 -810 907 C-811.0617041 907.30437988 -812.1234082 907.60875977 -813.21728516 907.92236328 C-824.76006913 911.23555304 -836.23793743 914.68635208 -847.6640625 918.38183594 C-854.35836441 920.52677407 -861.09613874 922.45404995 -867.875 924.3125 C-881.04497518 927.93256531 -894.05612061 932.01718978 -907.07633972 936.13484192 C-911.29894901 937.46878416 -915.52725606 938.78215507 -919.76171875 940.078125 C-940.48954294 946.42596389 -961.07736096 953.19328525 -981.67518616 959.94869995 C-988.39583574 962.15140375 -995.12131996 964.33851477 -1001.8515625 966.51171875 C-1021.95151354 973.00656504 -1041.99546361 979.65402363 -1062 986.4375 C-1063.11475708 986.81477234 -1064.22951416 987.19204468 -1065.37805176 987.58074951 C-1076.7954657 991.44810185 -1088.17787947 995.37920548 -1099.47480774 999.5866394 C-1106.50474601 1002.20282657 -1113.58530949 1004.64873198 -1120.6875 1007.0625 C-1129.98040692 1010.23319213 -1139.2025728 1013.50177713 -1148.32421875 1017.13671875 C-1151 1018 -1151 1018 -1153 1017 C-1151.34791671 1012.01887513 -1149.69379225 1007.03843434 -1148.0378418 1002.05859375 C-1147.47576819 1000.36737025 -1146.91423517 998.67596698 -1146.35327148 996.984375 C-1145.54295534 994.54118178 -1144.73064296 992.09865973 -1143.91796875 989.65625 C-1143.54746651 988.53700134 -1143.54746651 988.53700134 -1143.16947937 987.3951416 C-1141.78260994 983.23409689 -1140.31826974 979.11410175 -1138.76210022 975.01342773 C-1137.41813862 971.46275358 -1136.12405579 967.89371707 -1134.8203125 964.328125 C-1134.21498836 962.67703031 -1133.60951486 961.02599037 -1133.00390625 959.375 C-1132.06587896 956.81754362 -1131.1285913 954.25983042 -1130.19384766 951.70117188 C-1127.01370786 942.99904606 -1123.80808774 934.33648487 -1120.18017578 925.80859375 C-1117.96711389 920.54192764 -1115.94201966 915.20024166 -1113.875 909.875 C-1108.95412133 897.28495945 -1103.79596879 884.8083751 -1098.45654297 872.38964844 C-1096.93483462 868.84834796 -1095.42261763 865.30307099 -1093.91015625 861.7578125 C-1083.14512828 836.59550675 -1071.46673517 811.88428759 -1059.5625 787.24267578 C-1058.18383013 784.38150497 -1056.81169927 781.5173035 -1055.44284058 778.65142822 C-1048.44227567 763.99700619 -1041.27774585 749.45225116 -1033.65283203 735.10986328 C-1032.14796586 732.27840313 -1030.64934473 729.44371016 -1029.15235901 726.608078 C-1021.20951305 711.57063941 -1013.1206371 696.63306674 -1004.65380859 681.88232422 C-1002.91577291 678.85320564 -1001.18642255 675.81921724 -999.45703125 672.78515625 C-986.99181439 650.98178689 -973.9993978 629.5008926 -960.48339844 608.33251953 C-958.91889771 605.87247346 -957.36869628 603.40381253 -955.8203125 600.93359375 C-933.18290912 564.92240326 -908.60432697 530.03123418 -882.73876953 496.27783203 C-880.53323088 493.38852066 -878.35786318 490.47831887 -876.1875 487.5625 C-868.65821795 477.49973552 -860.79616975 467.70667531 -852.84570312 457.97509766 C-849.25346279 453.57022507 -845.73551734 449.1145581 -842.25 444.625 C-838.41554355 439.69763416 -834.40150656 435.0150683 -830.171875 430.41796875 C-827.89769962 427.88610803 -825.75823476 425.27641412 -823.625 422.625 C-819.46204105 417.47952452 -815.05158742 412.61999579 -810.5546875 407.76953125 C-808.49886278 405.54081607 -806.48383043 403.29232081 -804.5 401 C-800.25069218 396.10317861 -795.84418382 391.35075737 -791.45263672 386.58203125 C-790.00645626 385.00703135 -788.56672628 383.4263829 -787.12890625 381.84375 C-782.51478856 376.77140269 -777.84695161 371.7910512 -772.95277405 366.98521423 C-771.12510739 365.12718572 -769.42121468 363.2170593 -767.72827148 361.23657227 C-764.1731988 357.14765893 -760.43390742 353.28893737 -756.59765625 349.46484375 C-755.91626083 348.78249161 -755.23486542 348.10013947 -754.53282166 347.39710999 C-753.10294259 345.96655563 -751.67182089 344.53724233 -750.23950195 343.10913086 C-748.06802289 340.94300926 -745.90193675 338.77159826 -743.73632812 336.59960938 C-742.33625798 335.20020013 -740.93587762 333.80110116 -739.53515625 332.40234375 C-738.89844498 331.76360825 -738.2617337 331.12487274 -737.60572815 330.46678162 C-733.77332539 326.65394325 -729.82662971 323.02941269 -725.72618103 319.5059967 C-723.54438737 317.60250338 -721.51559693 315.57761529 -719.5 313.5 C-716.21484357 310.17573457 -712.84219312 307.0536017 -709.296875 304.01171875 C-706.3117473 301.39719364 -703.4082244 298.69945854 -700.5 296 C-695.73380266 291.5848043 -690.93092232 287.23150072 -686 283 C-685.26426758 282.36674805 -685.26426758 282.36674805 -684.51367188 281.72070312 C-680.94853806 278.65224674 -677.37636938 275.59214911 -673.79931641 272.53759766 C-672.6391774 271.54620614 -671.47992905 270.55377096 -670.32177734 269.56005859 C-663.20930786 263.45784659 -655.97295257 257.5573857 -648.578125 251.80078125 C-645.59107546 249.47254389 -642.64004617 247.10294869 -639.69580078 244.72094727 C-629.9941819 236.8834233 -620.01300029 229.433081 -610 222 C-609.17886719 221.38801758 -608.35773437 220.77603516 -607.51171875 220.14550781 C-596.83251735 212.18720342 -586.05212159 204.43171249 -575 197 C-574.00403809 196.3292041 -573.00807617 195.6584082 -571.98193359 194.96728516 C-557.79337948 185.42393028 -543.5572492 175.97504513 -529 167 C-527.9682666 166.36239746 -526.9365332 165.72479492 -525.87353516 165.06787109 C-488.06984606 141.7575046 -448.87776392 119.56855602 -408.12109375 101.8125 C-404.41987709 100.19742364 -400.77072101 98.48725079 -397.125 96.75 C-380.38937593 88.88823276 -363.25606288 81.63848537 -346 75 C-345.3517627 74.75056641 -344.70352539 74.50113281 -344.03564453 74.24414062 C-336.32372224 71.2871432 -328.58918139 68.49171313 -320.734375 65.93359375 C-318.06955547 65.02374823 -315.47857045 64.00884498 -312.875 62.9375 C-308.743434 61.23977785 -304.57830571 59.94592084 -300.2890625 58.7109375 C-297.76666171 57.92752975 -295.40438414 56.88369058 -292.99609375 55.8046875 C-289.35089959 54.33519631 -285.5707785 53.28362432 -281.80859375 52.15625 C-279.14388914 51.34727301 -276.49465078 50.51888389 -273.84765625 49.65625 C-260.36138231 45.27543398 -246.71090701 41.60639735 -233 38 C-231.30852136 37.55235679 -229.61710881 37.10446369 -227.92578125 36.65625 C-224.84947674 35.84182057 -221.77112122 35.0358023 -218.69140625 34.234375 C-215.48285444 33.39706884 -212.28481172 32.52828975 -209.08984375 31.640625 C-192.6207584 27.12557752 -175.92805505 23.79166043 -159.18986511 20.45336914 C-154.31170109 19.47740611 -149.44491532 18.45743155 -144.58158875 17.41017151 C-136.23176448 15.61672242 -127.90211829 14.10139306 -119.4375 12.9375 C-117.09615595 12.60425428 -114.75500919 12.26961948 -112.4140625 11.93359375 C-111.30579102 11.77487793 -110.19751953 11.61616211 -109.05566406 11.45263672 C-105.80598917 10.9712611 -102.57202048 10.43034791 -99.33740234 9.85791016 C-76.74532587 5.86466394 -53.90420275 3.70149376 -31.0625 1.75 C-30.03186432 1.66114532 -29.00122864 1.57229065 -27.93936157 1.48074341 C-24.97169555 1.22682878 -22.00358208 0.9792323 -19.03515625 0.734375 C-18.15506897 0.6595842 -17.27498169 0.5847934 -16.3682251 0.50773621 C-10.89325638 0.0679349 -5.49279335 -0.06509772 0 0 Z " fill="#FEFEFE" transform="translate(1226,51)"/>
<path d="M0 0 C10.36016366 1.35971473 20.36955335 3.61709866 30.5 6.125 C31.30514038 6.32252869 32.11028076 6.52005737 32.93981934 6.72357178 C47.26247191 10.23877264 61.4904813 14.04309714 75.68017578 18.06347656 C78.92790159 18.97966102 82.17972038 19.87935742 85.43359375 20.7734375 C100.3816234 24.89139353 115.20650811 29.35945203 130 34 C131.34112133 34.41666415 132.68226866 34.83324465 134.0234375 35.24975586 C148.50333562 39.76461159 162.88272597 44.57771953 177.25 49.4375 C177.89685886 49.65622269 178.54371773 49.87494537 179.21017838 50.10029602 C201.2471129 57.55679806 223.06315507 65.44352637 244.67022705 74.07281494 C247.91991926 75.36610237 251.17569429 76.64373844 254.43121338 77.92227173 C301.87810899 96.56853252 348.29620869 117.43027006 394 140 C394.82552368 140.40728333 395.65104736 140.81456665 396.50158691 141.23419189 C415.66483148 150.69219793 434.79688025 160.15941848 453.45410156 170.59033203 C456.22513407 172.12465709 459.01241229 173.62578951 461.8046875 175.12109375 C474.20563077 181.7634542 486.41614244 188.66793561 498.5390625 195.8046875 C502.94850871 198.39714559 507.39574173 200.90600051 511.875 203.375 C521.75247066 208.8579988 531.30387237 214.89154272 540.90010071 220.8475647 C544.68409141 223.19342336 548.48355196 225.51210659 552.29296875 227.81640625 C568.22261825 237.47620542 583.73739777 247.68653143 599.1867981 258.09092712 C603.0715624 260.70709433 606.96458952 263.31025253 610.86538696 265.90245056 C617.73252289 270.46652155 624.54996031 275.09419603 631.3125 279.8125 C632.29250977 280.49554199 633.27251953 281.17858398 634.28222656 281.88232422 C643.26106282 288.15582981 652.15588914 294.53834455 661 301 C661.76763672 301.55896973 662.53527344 302.11793945 663.32617188 302.69384766 C673.54949781 310.14293088 683.6257943 317.75248094 693.58203125 325.5546875 C697.24318125 328.42049818 700.93807069 331.23865514 704.64477539 334.04516602 C710.99926824 338.85952274 717.21444134 343.77143801 723.25463867 348.97509766 C727.12034424 352.29512054 731.0939252 355.44618593 735.125 358.5625 C740.43810105 362.68000751 745.43449478 367.03315866 750.36328125 371.609375 C752.96383857 373.96721364 755.63738989 376.17859131 758.375 378.375 C763.81612788 382.76526628 768.91189551 387.46724831 774.01953125 392.234375 C776.26598689 394.32910924 778.54473428 396.37329669 780.875 398.375 C789.9367134 406.22463709 798.62681205 414.53297282 807.0390625 423.0703125 C808.90352277 424.90506026 810.82296435 426.61530428 812.8125 428.3125 C820.49288779 434.9176335 827.6019473 442.22869597 834.16015625 449.94140625 C836.50496245 452.56500045 838.99650097 455.0296905 841.5 457.5 C845.24787045 461.20303493 848.84424033 464.97646724 852.265625 468.984375 C854.25912581 471.30114621 856.31554388 473.55419984 858.375 475.8125 C862.19792623 480.05305683 865.8468501 484.40242569 869.43359375 488.84375 C871.33779526 491.19908675 873.27372361 493.52530018 875.22265625 495.84375 C903.30435904 529.35171638 941.87451368 577.66954764 938 624 C936.84649152 630.57811591 933.30716399 635.06645493 928 639 C882.95109776 665.8905514 818.95833763 660.35095282 768.54785156 660.26074219 C762.26177403 660.24957952 755.97587032 660.25599064 749.68979931 660.26761436 C713.48109255 660.32427801 677.33753581 659.53411569 641.14981174 658.4278965 C609.74879454 657.46866749 578.34358075 656.64901591 546.9375 655.875 C546.03717246 655.85277768 545.13684491 655.83055535 544.20923471 655.80765963 C485.17075767 654.35418383 426.15776686 653.62572922 367.10132074 653.6849184 C364.46136014 653.68747688 361.82139964 653.68945553 359.18143845 653.69130707 C316.73378269 653.7236562 274.30206169 654.05524009 231.86275101 654.94055557 C229.24209437 654.99497296 226.62141141 655.04765797 224.0007019 655.09945679 C214.91611158 655.28010613 205.83286216 655.49591306 196.75 655.75 C196.07194683 655.76882107 195.39389366 655.78764214 194.69529343 655.80703354 C126.5607433 657.70952747 58.42920695 660.97510117 -9.58178711 665.47583008 C-10.36873239 665.52778975 -11.15567766 665.57974941 -11.96646976 665.63328362 C-15.59241185 665.87313765 -19.21810982 666.11582221 -22.84339905 666.36535645 C-24.09068283 666.44950806 -25.33796661 666.53365967 -26.62304688 666.62036133 C-27.69389526 666.69410477 -28.76474365 666.76784821 -29.86804199 666.84382629 C-33.25006202 667.01246923 -36.61433593 667.02590186 -40 667 C-37.0428501 665.02856673 -34.11294793 663.53342453 -30.91796875 661.98046875 C-29.67393538 661.37154277 -28.43021453 660.76197803 -27.18676758 660.15185547 C-26.53447174 659.83198669 -25.8821759 659.51211792 -25.21011353 659.18255615 C5.84206021 643.90595678 34.4758065 625.2497911 61 603 C62.42119141 601.85724609 62.42119141 601.85724609 63.87109375 600.69140625 C72.51974068 593.63103697 80.4091169 585.80733839 88.3125 577.9375 C88.87212433 577.38305206 89.43174866 576.82860413 90.0083313 576.25735474 C97.14646408 569.1712707 103.75141117 561.89812203 110 554 C111.07236437 552.70592775 112.1487494 551.4151689 113.23046875 550.12890625 C141.48075642 516.20417501 162.8983712 476.79022841 177 435 C177.39445312 433.91203125 177.78890625 432.8240625 178.1953125 431.703125 C208.5720215 345.73130707 197.46642914 249.61476483 159.34765625 168.2890625 C149.80573039 148.40667911 138.13269387 129.69957536 125 112 C124.3510376 111.12359863 124.3510376 111.12359863 123.68896484 110.22949219 C117.46494157 101.87500224 110.864972 93.83451002 104 86 C103.37029297 85.28126709 102.74058594 84.56253418 102.09179688 83.82202148 C96.35062485 77.3541106 90.35778094 71.17155414 84.24414062 65.05883789 C82.6285932 63.44109808 81.02124966 61.81549364 79.4140625 60.18945312 C72.93228503 53.67263601 66.21632915 47.70947389 59 42 C57.70591682 40.92764881 56.41515162 39.85127114 55.12890625 38.76953125 C40.0518535 26.21470079 24.02493175 15.36708039 7.16186523 5.35375977 C6.22673096 4.79744873 5.29159668 4.2411377 4.328125 3.66796875 C3.07370605 2.92969849 3.07370605 2.92969849 1.79394531 2.17651367 C0.90594238 1.5941394 0.90594238 1.5941394 0 1 C0 0.67 0 0.34 0 0 Z " fill="#FEFEFE" transform="translate(1609,83)"/>
<path d="M0 0 C1.04172363 0.16072998 1.04172363 0.16072998 2.10449219 0.32470703 C19.18873132 3.04535429 40.87201035 6.64789626 54 19 C54.59683594 19.53367188 55.19367188 20.06734375 55.80859375 20.6171875 C58.84399803 23.65960195 60.4217027 26.09502212 60.75 30.4375 C60.32642434 35.8519019 57.88307337 39.33437873 54 43 C35.83652204 56.65481322 10.11957684 60.84475918 -12 63 C-13.62228516 63.16822266 -13.62228516 63.16822266 -15.27734375 63.33984375 C-19.18356432 63.67257899 -23.08291136 63.86866232 -27 64 C-28.00740234 64.03399902 -29.01480469 64.06799805 -30.05273438 64.10302734 C-57.7411666 64.88628713 -85.59971816 62.92615259 -112 54 C-113.19367188 53.59910156 -114.38734375 53.19820312 -115.6171875 52.78515625 C-124.09727086 49.58084994 -131.55464616 44.76585187 -137.6875 38.0625 C-139.49291518 33.84986457 -140.11404573 30.49433518 -139 26 C-132.06140459 14.16991032 -117.54700117 8.52407639 -104.91943359 5.18554688 C-71.24582497 -3.05389576 -34.39982775 -5.44594863 0 0 Z " fill="#FDFDFD" transform="translate(1551,153)"/>
</svg>
