<?xml version="1.0" encoding="UTF-8"?>
<svg version="1.1" xmlns="http://www.w3.org/2000/svg" width="2351" height="3024">
<path d="M0 0 C1.96640316 2.94960474 2.61034168 4.8328917 3.44812012 8.22244263 C3.7193079 9.30728754 3.99049568 10.39213245 4.26990128 11.50985146 C4.56175182 12.70301161 4.85360237 13.89617176 5.15429688 15.12548828 C5.46744717 16.38552359 5.78059746 17.64555889 6.10323715 18.94377708 C6.96725179 22.42099377 7.82390266 25.89998825 8.67930698 29.37933159 C9.58722114 33.06688066 10.50184725 36.75276443 11.41571045 40.43884277 C12.97341393 46.72579852 14.52682652 53.01380148 16.07727051 59.30255127 C18.30369262 68.3330767 20.53713108 77.36185561 22.77219248 86.39024615 C29.28054151 112.68207185 35.77257283 138.97794286 42.234375 165.28125 C42.50117034 166.3672027 42.50117034 166.3672027 42.77335548 167.47509384 C43.12098858 168.89011273 43.46861481 170.30513332 43.81623363 171.72015572 C44.62734414 175.02180611 45.4385857 178.32342426 46.25 181.625 C46.40931881 182.27331032 46.56863762 182.92162064 46.73278427 183.58957672 C65.06887793 258.18449603 83.93452852 332.65934135 103.34638977 406.98120117 C106.0387535 417.29258577 108.71003519 427.60925526 111.36811256 437.92952919 C135.43785376 531.3795505 160.45034264 624.59806261 259.95428467 967.66033936 C261.02195986 971.07013236 262.08754463 974.4805736 263.15283203 977.89111328 C274.76326606 1015.03886218 286.72355894 1052.06758988 299 1089 C299.40003235 1090.20352112 299.8000647 1091.40704224 300.21221924 1092.64703369 C311.13574806 1125.47436578 322.582493 1158.08407991 334.53140259 1190.55201721 C336.98594263 1197.2238033 339.41557921 1203.90386341 341.8203125 1210.59375 C368.825775 1285.58705664 399.85103878 1359.12610373 434.50732422 1430.89697266 C436.03679105 1434.07648254 437.55320455 1437.26193862 439.06640625 1440.44921875 C444.64202514 1452.17801068 450.37058238 1463.78203279 456.515625 1475.22265625 C457.92440771 1477.85856284 459.32017601 1480.50106397 460.71186829 1483.14602661 C468.83805863 1498.58806322 477.21742329 1513.82072782 486.12695312 1528.82910156 C488.19005144 1532.32173985 490.22983731 1535.82734161 492.265625 1539.3359375 C499.35446405 1551.54214471 506.45462877 1563.71161168 514.29980469 1575.45263672 C516.01772402 1578.02655549 517.72569753 1580.60685311 519.43241882 1583.1882019 C528.74661638 1597.27096701 538.07533684 1611.33695836 548 1625 C548.53753906 1625.74185547 549.07507812 1626.48371094 549.62890625 1627.24804688 C565.13759007 1648.60339852 581.46583608 1669.3139281 598.61425781 1689.37597656 C600.05729092 1691.06714221 601.49374817 1692.76374619 602.9296875 1694.4609375 C608.86282948 1701.45350007 614.94447936 1708.27434584 621.19921875 1714.98046875 C623.67540371 1717.63765403 626.09255678 1720.34273983 628.5 1723.0625 C632.40754171 1727.43184209 636.52204809 1731.55411815 640.69042969 1735.67114258 C644.08130495 1739.03533947 647.26108363 1742.50872492 650.36328125 1746.13671875 C655.14822715 1751.58401993 660.44224131 1756.43472394 665.93359375 1761.15234375 C668.21149478 1763.18910592 670.35418588 1765.32474075 672.5 1767.5 C675.78515643 1770.82426543 679.15780688 1773.9463983 682.703125 1776.98828125 C685.68824641 1779.60280085 688.59192682 1782.30038639 691.5 1785 C695.63191462 1788.83135827 699.79039912 1792.61636472 704.0546875 1796.30078125 C706.3366529 1798.29406428 708.57228574 1800.33493027 710.8125 1802.375 C714.23229328 1805.46636801 717.71958524 1808.42459032 721.3125 1811.3125 C726.12585437 1815.20255931 730.6476145 1819.32871834 735.16113281 1823.55566406 C739.37393141 1827.47878593 743.76395352 1831.11896414 748.25390625 1834.72265625 C751.26319052 1837.21826469 754.13938654 1839.83765143 757 1842.5 C760.73327255 1845.97419243 764.52371111 1849.3006871 768.5 1852.5 C773.01858176 1856.1356405 777.27983329 1859.96836402 781.52172852 1863.91625977 C784.7329905 1866.88715628 788.02627815 1869.69961077 791.4375 1872.4375 C796.85908343 1876.80140459 801.92842117 1881.4842153 807.015625 1886.2265625 C811.60942351 1890.50857767 816.3543136 1894.60355969 821.140625 1898.66796875 C827.72419453 1904.26792438 834.1936397 1909.9536087 840.51953125 1915.84375 C843.9763798 1919.0621952 847.48040445 1922.20944872 851.05078125 1925.30078125 C855.08095661 1928.81406038 859.03146612 1932.41746334 863 1936 C864.66640851 1937.50028679 866.33307353 1939.00028872 868 1940.5 C869.24136719 1941.61761719 869.24136719 1941.61761719 870.5078125 1942.7578125 C872.14739879 1944.23292618 873.78799655 1945.70691652 875.4296875 1947.1796875 C881.48083485 1952.6121872 887.48400763 1958.09551002 893.47216797 1963.59716797 C895.46379876 1965.42585294 897.45812224 1967.25158725 899.45239258 1969.07739258 C901.96996985 1971.3830679 904.48520893 1973.69128656 907 1976 C907.50080078 1976.45955078 908.00160156 1976.91910156 908.51757812 1977.39257812 C915.31972419 1983.63873779 922.07975558 1989.92908921 928.8125 1996.25 C929.50561279 1996.89928467 930.19872559 1997.54856934 930.9128418 1998.2175293 C934.94631284 2002.01206548 938.89308993 2005.87103401 942.7565918 2009.83886719 C944.68129178 2011.69298018 946.6466862 2013.43266741 948.67156982 2015.17451477 C952.77388408 2018.75609397 956.65471557 2022.51321813 960.49829102 2026.36889648 C961.20022583 2027.06907898 961.90216064 2027.76926147 962.62536621 2028.49066162 C964.92071643 2030.78164844 967.21243364 2033.07622899 969.50390625 2035.37109375 C971.11223513 2036.97874801 972.72071236 2038.58625389 974.32933044 2040.19361877 C977.69050063 2043.55331945 981.04986786 2046.91480972 984.40795898 2050.27758789 C988.69704205 2054.57236776 992.99059939 2058.86264209 997.28552341 2063.15157986 C1000.60487798 2066.46730863 1003.92183197 2069.78543065 1007.23808098 2073.10426521 C1008.81967868 2074.6865266 1010.40201016 2076.26805489 1011.98510933 2077.84881401 C1014.20287961 2080.06402453 1016.41738504 2082.28245032 1018.63110352 2084.50170898 C1019.27597214 2085.14455338 1019.92084076 2085.78739777 1020.58525085 2086.44972229 C1024.38083415 2090.26278553 1027.98620465 2094.19173508 1031.49282742 2098.27252293 C1033.39674225 2100.45473435 1035.42195849 2102.48398958 1037.5 2104.5 C1040.78103368 2107.74256259 1043.85459996 2111.07047022 1046.85546875 2114.5703125 C1049.83448821 2117.9454493 1052.91961932 2121.21749566 1056 2124.5 C1060.76533757 2129.58694374 1065.47738554 2134.69462534 1070 2140 C1071.9572932 2142.29255669 1073.91590474 2144.58398314 1075.875 2146.875 C1076.39505615 2147.4839209 1076.9151123 2148.0928418 1077.45092773 2148.72021484 C1080.47957834 2152.25719364 1083.55187183 2155.74434963 1086.6875 2159.1875 C1090.84316265 2163.77357057 1094.75564701 2168.52702341 1098.64697266 2173.33789062 C1100.18583116 2175.22828195 1101.73834595 2177.10692707 1103.29296875 2178.984375 C1110.66463199 2187.88752187 1117.91572635 2196.86666919 1125 2206 C1126.19302734 2207.52947266 1126.19302734 2207.52947266 1127.41015625 2209.08984375 C1134.17665536 2217.81477675 1140.72958244 2226.69374383 1147.24609375 2235.60644531 C1148.8861024 2237.84456402 1150.53574607 2240.07523161 1152.1875 2242.3046875 C1161.66903792 2255.17704281 1170.38654259 2268.53768626 1179 2282 C1179.59345215 2282.92748047 1180.1869043 2283.85496094 1180.79833984 2284.81054688 C1189.7621363 2298.89242392 1198.02403951 2313.33860706 1206 2328 C1206.55187988 2329.01046387 1207.10375977 2330.02092773 1207.67236328 2331.06201172 C1228.27400696 2369.00403502 1243.98804318 2409.50939288 1252.3125 2451.9375 C1252.55516602 2453.16831299 1252.79783203 2454.39912598 1253.04785156 2455.66723633 C1256.27831497 2472.85106271 1257.38031753 2489.66107811 1257.3125 2507.125 C1257.31034485 2508.12956238 1257.3081897 2509.13412476 1257.30596924 2510.16912842 C1257.16927842 2550.12156292 1251.37899068 2589.43077039 1241 2628 C1240.66629395 2629.24023926 1240.33258789 2630.48047852 1239.98876953 2631.75830078 C1231.90286326 2661.39908446 1221.6274874 2689.97783121 1209 2718 C1208.72694031 2718.60821594 1208.45388062 2719.21643188 1208.17254639 2719.84307861 C1187.27266547 2766.37068201 1161.15788145 2810.56773289 1130 2851 C1129.2570166 2851.96607178 1129.2570166 2851.96607178 1128.49902344 2852.95166016 C1125.37346663 2857.00081796 1122.20438217 2861.0130042 1119 2865 C1117.88238281 2866.3921875 1117.88238281 2866.3921875 1116.7421875 2867.8125 C1107.38250759 2879.35275049 1097.65112301 2890.5219983 1087.50878906 2901.37792969 C1085.97384343 2903.02812043 1084.45025005 2904.68811534 1082.9296875 2906.3515625 C1075.06051546 2914.95423767 1067.12400701 2923.44540529 1058.25 2931.03125 C1055.91120579 2933.07769493 1053.63947171 2935.18379716 1051.36889648 2937.30517578 C1045.11474311 2943.1443229 1038.68820394 2948.6584143 1032 2954 C1030.89353347 2954.908943 1029.78811724 2955.8191656 1028.68359375 2956.73046875 C992.962697 2986.02494248 951.40015069 3010.78759139 906 3021 C905.22591797 3021.17644043 904.45183594 3021.35288086 903.65429688 3021.53466797 C872.36583186 3028.34443095 839.5131172 3024.60988883 812 3008 C808.81836632 3005.84531897 805.90004105 3003.51732188 803 3001 C802.20335937 3000.34644531 801.40671875 2999.69289063 800.5859375 2999.01953125 C788.79895117 2989.00241748 781.03067173 2976.5975967 774 2963 C773.40574219 2961.85402344 772.81148437 2960.70804688 772.19921875 2959.52734375 C762.74682973 2940.253162 756.70958593 2919.35611599 750.62722778 2898.83590698 C742.15236553 2870.29333655 733.64153719 2842.02862101 721 2815 C720.59813477 2814.13584473 720.19626953 2813.27168945 719.78222656 2812.38134766 C711.67320397 2795.11455298 701.87096142 2778.94780988 690 2764 C689.319375 2763.12730469 688.63875 2762.25460938 687.9375 2761.35546875 C666.66188894 2734.64362619 638.13388972 2706.56322249 603 2701 C577.27882172 2698.18406326 553.74764354 2714.42279626 534.69287109 2729.62744141 C525.6618469 2736.94968225 517.01364074 2744.70532827 508.49755859 2752.61572266 C506.98154261 2754.0170612 505.45517292 2755.40624961 503.92578125 2756.79296875 C496.99077986 2763.10210237 490.29924092 2769.61384284 483.73144531 2776.30541992 C480.61953294 2779.45915907 477.47557378 2782.4998512 474.11328125 2785.38671875 C469.32694054 2789.51215232 464.9301042 2793.99878659 460.5 2798.5 C455.40225927 2803.67956642 450.29953662 2808.75395007 444.7578125 2813.4609375 C442.92176752 2815.06849689 441.20789027 2816.75761464 439.5 2818.5 C436.53264677 2821.51413582 433.42654708 2824.29917333 430.22265625 2827.05859375 C427.67023117 2829.28804061 425.18112486 2831.58001382 422.6875 2833.875 C418.19501362 2837.97199927 413.58092718 2841.86120426 408.84765625 2845.67578125 C406.40113354 2847.6726002 404.00434491 2849.71513743 401.61791992 2851.78295898 C392.45836138 2859.68597159 382.73981019 2866.83417514 373 2874 C372.21367188 2874.58104492 371.42734375 2875.16208984 370.6171875 2875.76074219 C292.27443172 2933.55512262 195.35211039 2970.41810401 93.49609375 2971.203125 C92.13718128 2971.21014834 90.77826913 2971.21723515 89.4193573 2971.22438049 C85.09206677 2971.24380607 80.76482972 2971.24881587 76.4375 2971.25 C75.69942863 2971.25044186 74.96135727 2971.25088371 74.2009201 2971.25133896 C51.00894325 2971.25861855 28.04657204 2970.80584018 5 2968 C3.52817441 2967.82651705 2.05633156 2967.65318055 0.58447266 2967.47998047 C-53.31266999 2961.04367448 -107.2362757 2949.10626759 -157 2927 C-158.01674805 2926.55188965 -159.03349609 2926.1037793 -160.08105469 2925.64208984 C-201.53048991 2907.26779025 -239.14707124 2883.14505048 -273 2853 C-273.53947266 2852.51982422 -274.07894531 2852.03964844 -274.63476562 2851.54492188 C-281.7614746 2845.16372168 -288.59696579 2838.4990476 -295.375 2831.75 C-296.12434814 2831.00532471 -296.87369629 2830.26064941 -297.64575195 2829.4934082 C-302.30229987 2824.82336455 -306.70279488 2820.00036081 -311 2815 C-312.02164351 2813.84346486 -313.04503432 2812.68847046 -314.0703125 2811.53515625 C-321.59246295 2803.01070273 -328.6138919 2794.19568662 -335.42675781 2785.09667969 C-336.93941073 2783.08074808 -338.46375807 2781.07429809 -339.9921875 2779.0703125 C-353.9943037 2760.65580607 -366.77326395 2741.43121832 -379.39819336 2722.05810547 C-405.56861404 2677.6253395 -405.56861404 2677.6253395 -446 2649 C-473.12911173 2646.488586 -497.24812066 2663.00064121 -517.3359375 2679.59716797 C-522.04556999 2683.56746555 -526.55819108 2687.7339303 -531 2692 C-531.50805176 2692.4861377 -532.01610352 2692.97227539 -532.53955078 2693.47314453 C-539.58255583 2700.25129198 -545.94040199 2707.31638913 -552 2715 C-552.93171858 2716.14345758 -553.86541816 2717.285303 -554.80078125 2718.42578125 C-577.78060537 2746.55872538 -596.11451502 2778.08894208 -612.63134766 2810.35253906 C-613.901062 2812.80861869 -615.19760168 2815.24713971 -616.51171875 2817.6796875 C-623.25747657 2830.18391998 -629.22901746 2843.01678395 -635.13720703 2855.93310547 C-637.13287424 2860.29437299 -639.1425071 2864.64915497 -641.15234375 2869.00390625 C-647.73787001 2883.28259925 -654.28347263 2897.57638459 -660.6875 2911.9375 C-704.21970455 3009.39289836 -704.21970455 3009.39289836 -733.5 3021.5 C-734.98767362 3022.0355625 -736.48736578 3022.53963306 -738 3023 C-738.59683594 3023.18949219 -739.19367188 3023.37898438 -739.80859375 3023.57421875 C-766.24148512 3028.71002117 -794.85196961 3015.05128963 -818 3004 C-818.88977539 3003.57702637 -819.77955078 3003.15405273 -820.69628906 3002.71826172 C-852.93837345 2987.28443979 -882.77685831 2967.25038967 -910.25585938 2944.43994141 C-912.71166737 2942.41245602 -915.20322868 2940.42994304 -917.6875 2938.4375 C-922.95410912 2934.12773728 -927.92620334 2929.53244705 -932.89453125 2924.88671875 C-935.47121995 2922.47904455 -938.09953417 2920.13897001 -940.75 2917.8125 C-945.55025949 2913.50881908 -950.12188905 2908.98693822 -954.6875 2904.4375 C-955.40067383 2903.72891846 -956.11384766 2903.02033691 -956.84863281 2902.2902832 C-960.879183 2898.24802175 -964.73402743 2894.10743443 -968.46118164 2889.78393555 C-970.39102143 2887.54669307 -972.38154568 2885.36807934 -974.375 2883.1875 C-978.63356534 2878.45655599 -982.71751444 2873.61544355 -986.68652344 2868.63916016 C-987.59817556 2867.50145898 -988.51594415 2866.36864268 -989.43847656 2865.23974609 C-997.6656745 2855.16077566 -1005.10301286 2844.63102157 -1012.3125 2833.8125 C-1012.72843414 2833.18991302 -1013.14436829 2832.56732605 -1013.57290649 2831.9258728 C-1063.17224721 2757.50908946 -1093.86496419 2668.66091044 -1094.203125 2578.7109375 C-1094.20882507 2577.48758698 -1094.21452515 2576.26423645 -1094.22039795 2575.0038147 C-1094.22977649 2572.4273564 -1094.23635317 2569.8508865 -1094.24023438 2567.27441406 C-1094.24985546 2563.43271517 -1094.28091462 2559.59157205 -1094.3125 2555.75 C-1094.42558352 2529.38345107 -1091.4675231 2503.78056002 -1086 2478 C-1085.79568359 2477.03271973 -1085.59136719 2476.06543945 -1085.38085938 2475.06884766 C-1069.10497829 2400.18687731 -1030.78714855 2329.78272688 -988 2267 C-987.60280762 2266.41653809 -987.20561523 2265.83307617 -986.79638672 2265.23193359 C-983.55261351 2260.47285664 -980.28123873 2255.73330022 -977 2251 C-976.53609863 2250.32839844 -976.07219727 2249.65679688 -975.59423828 2248.96484375 C-967.64391315 2237.47519879 -959.25151131 2226.35602698 -950.74169922 2215.27636719 C-948.59599528 2212.47197364 -946.48233473 2209.64582527 -944.375 2206.8125 C-935.53180097 2194.98768597 -926.41567234 2183.37356262 -917 2172 C-915.5411501 2170.20875392 -914.08282976 2168.41707644 -912.625 2166.625 C-908.82895506 2161.98245027 -904.96604477 2157.40082952 -901.08203125 2152.83203125 C-898.2217818 2149.4618766 -895.40758766 2146.0599159 -892.625 2142.625 C-887.45601189 2136.27873346 -882.07700806 2130.12076198 -876.69824219 2123.95263672 C-875.01427371 2122.01641189 -873.3379238 2120.07387206 -871.6640625 2118.12890625 C-865.68825822 2111.19071645 -859.62874263 2104.354014 -853.4140625 2097.62890625 C-851.40875865 2095.44513685 -849.4413393 2093.24036075 -847.5 2091 C-844.0911994 2087.06676853 -840.56616377 2083.24309568 -837.0402832 2079.4152832 C-834.54888198 2076.70564461 -832.08846661 2073.97748399 -829.6875 2071.1875 C-825.71092258 2066.60060854 -821.54098067 2062.1950164 -817.39086914 2057.76586914 C-813.77686158 2053.90791012 -810.18683257 2050.03117892 -806.625 2046.125 C-800.19402919 2039.09141992 -793.64836139 2032.16703575 -787.10693359 2025.23632812 C-784.9902214 2022.98962086 -782.87907814 2020.73781005 -780.76953125 2018.484375 C-774.38532893 2011.67007905 -768.0103395 2004.87609101 -761.30859375 1998.37109375 C-759.36218202 1996.37198729 -757.54255319 1994.33480693 -755.72265625 1992.22265625 C-751.38517193 1987.22422194 -746.68273995 1982.63134646 -741.9609375 1978 C-738.72440659 1974.80095786 -735.58786975 1971.5805249 -732.625 1968.125 C-727.54865146 1962.23137086 -721.9203192 1956.87673235 -716.3828125 1951.421875 C-711.99698431 1947.07603917 -707.78770818 1942.67849221 -703.76953125 1937.9921875 C-699.64008107 1933.34313762 -695.10378944 1929.06849096 -690.671875 1924.7109375 C-686.49299119 1920.57469536 -682.51151504 1916.36103708 -678.6796875 1911.90234375 C-675.93080562 1908.7890752 -672.96646441 1905.90402118 -670 1903 C-665.74424556 1898.79323266 -661.63598044 1894.55950092 -657.76953125 1889.98828125 C-654.63174895 1886.46260534 -651.21920396 1883.20228151 -647.84375 1879.90625 C-645.03031604 1877.0968039 -642.44955518 1874.10593382 -639.84765625 1871.1015625 C-636.73911283 1867.56584081 -633.49058208 1864.16431867 -630.25 1860.75 C-621.93736076 1851.95284934 -613.65901193 1843.13153759 -605.734375 1833.98046875 C-603.72735462 1831.68866845 -601.67597149 1829.44003248 -599.625 1827.1875 C-595.76977614 1822.91689849 -592.12417485 1818.51226331 -588.5078125 1814.0390625 C-585.61167573 1810.52941389 -582.62304174 1807.10995408 -579.625 1803.6875 C-574.00450103 1797.24712486 -568.67070031 1790.63575942 -563.45410156 1783.86621094 C-561.93530683 1781.91697202 -560.38862382 1779.99264136 -558.8359375 1778.0703125 C-541.96800739 1757.0438409 -528.01080523 1734.30423388 -514.98248291 1710.76959229 C-513.67456751 1708.41384952 -512.35465471 1706.06493025 -511.03482056 1703.71585083 C-501.67413562 1687.04311183 -492.8184682 1670.13360983 -484.1361084 1653.09919739 C-481.92385792 1648.77086533 -479.66675146 1644.46818301 -477.38908386 1640.1739502 C-471.64774516 1629.34405313 -466.17973799 1618.39450504 -460.8125 1607.375 C-460.13442795 1605.98584885 -460.13442795 1605.98584885 -459.44265747 1604.56863403 C-451.84673968 1588.9931797 -444.55195173 1573.30116876 -437.4705658 1557.48623657 C-435.21450351 1552.45491758 -432.89700574 1547.45410202 -430.5637207 1542.45825195 C-416.20491677 1511.68660172 -403.01544797 1480.35901509 -390 1449 C-389.62679626 1448.10146301 -389.25359253 1447.20292603 -388.86907959 1446.27716064 C-355.82485404 1366.66342911 -326.07180629 1285.72690643 -298.09967041 1204.20397949 C-296.98361615 1200.95226431 -295.86565525 1197.70120872 -294.74755859 1194.45019531 C-275.45387252 1138.30460385 -257.23269512 1081.81204631 -240 1025 C-239.62161987 1023.7529126 -239.24323975 1022.5058252 -238.85339355 1021.22094727 C-218.50731429 954.12141297 -199.25232849 886.69876651 -181 819 C-180.66413879 817.7551886 -180.32827759 816.5103772 -179.98223877 815.22784424 C-157.40299575 731.48686574 -136.16564353 647.38471355 -82 411 C-81.70175449 409.6331456 -81.70175449 409.6331456 -81.39748383 408.23867798 C-63.13530281 324.50990679 -45.97001592 240.50653232 -17.53562927 90.88550568 C-16.9810461 87.89789282 -16.42616277 84.91033583 -15.87121582 81.92279053 C-14.90144875 76.70185556 -13.93202744 71.48085646 -12.96270943 66.2598381 C-12.38935329 63.17194514 -11.8157828 60.08409205 -11.24217224 56.99624634 C-10.86804779 54.98187715 -10.49394785 52.96750341 -10.11987305 50.953125 C-9.93704993 49.96864065 -9.75422682 48.9841563 -9.56586361 47.9698391 C-8.49458515 42.19804952 -7.42745423 36.42551252 -6.36403275 30.65227032 C-5.71737454 27.14367306 -5.06846801 23.63549391 -4.41913986 20.12738991 C-4.11877213 18.50129023 -3.81949047 16.87498952 -3.52135086 15.24847984 C-3.11582617 13.03647948 -2.70666882 10.82518112 -2.29663086 8.61401367 C-1.95504189 6.75881355 -1.95504189 6.75881355 -1.60655212 4.86613464 C-1 2 -1 2 0 0 Z " fill="#FEFEFE" transform="translate(1094,0)"/>
<path d="M0 0 C1.96640316 2.94960474 2.61034168 4.8328917 3.44812012 8.22244263 C3.7193079 9.30728754 3.99049568 10.39213245 4.26990128 11.50985146 C4.56175182 12.70301161 4.85360237 13.89617176 5.15429688 15.12548828 C5.46744717 16.38552359 5.78059746 17.64555889 6.10323715 18.94377708 C6.96725179 22.42099377 7.82390266 25.89998825 8.67930698 29.37933159 C9.58722114 33.06688066 10.50184725 36.75276443 11.41571045 40.43884277 C12.97341393 46.72579852 14.52682652 53.01380148 16.07727051 59.30255127 C18.30369262 68.3330767 20.53713108 77.36185561 22.77219248 86.39024615 C29.28054151 112.68207185 35.77257283 138.97794286 42.234375 165.28125 C42.50117034 166.3672027 42.50117034 166.3672027 42.77335548 167.47509384 C43.12098858 168.89011273 43.46861481 170.30513332 43.81623363 171.72015572 C44.62734414 175.02180611 45.4385857 178.32342426 46.25 181.625 C46.40931881 182.27331032 46.56863762 182.92162064 46.73278427 183.58957672 C65.06887793 258.18449603 83.93452852 332.65934135 103.34638977 406.98120117 C106.0387535 417.29258577 108.71003519 427.60925526 111.36811256 437.92952919 C135.43785376 531.3795505 160.45034264 624.59806261 259.95428467 967.66033936 C261.02195986 971.07013236 262.08754463 974.4805736 263.15283203 977.89111328 C274.76326606 1015.03886218 286.72355894 1052.06758988 299 1089 C299.40003235 1090.20352112 299.8000647 1091.40704224 300.21221924 1092.64703369 C311.13574806 1125.47436578 322.582493 1158.08407991 334.53140259 1190.55201721 C336.98594263 1197.2238033 339.41557921 1203.90386341 341.8203125 1210.59375 C368.825775 1285.58705664 399.85103878 1359.12610373 434.50732422 1430.89697266 C436.03679105 1434.07648254 437.55320455 1437.26193862 439.06640625 1440.44921875 C444.64202514 1452.17801068 450.37058238 1463.78203279 456.515625 1475.22265625 C457.92440771 1477.85856284 459.32017601 1480.50106397 460.71186829 1483.14602661 C468.83805863 1498.58806322 477.21742329 1513.82072782 486.12695312 1528.82910156 C488.19005144 1532.32173985 490.22983731 1535.82734161 492.265625 1539.3359375 C499.35446405 1551.54214471 506.45462877 1563.71161168 514.29980469 1575.45263672 C516.01772402 1578.02655549 517.72569753 1580.60685311 519.43241882 1583.1882019 C528.74661638 1597.27096701 538.07533684 1611.33695836 548 1625 C548.53753906 1625.74185547 549.07507812 1626.48371094 549.62890625 1627.24804688 C565.13759007 1648.60339852 581.46583608 1669.3139281 598.61425781 1689.37597656 C600.05729092 1691.06714221 601.49374817 1692.76374619 602.9296875 1694.4609375 C608.86282948 1701.45350007 614.94447936 1708.27434584 621.19921875 1714.98046875 C623.67540371 1717.63765403 626.09255678 1720.34273983 628.5 1723.0625 C632.40754171 1727.43184209 636.52204809 1731.55411815 640.69042969 1735.67114258 C644.08130495 1739.03533947 647.26108363 1742.50872492 650.36328125 1746.13671875 C655.14822715 1751.58401993 660.44224131 1756.43472394 665.93359375 1761.15234375 C668.21149478 1763.18910592 670.35418588 1765.32474075 672.5 1767.5 C675.78515643 1770.82426543 679.15780688 1773.9463983 682.703125 1776.98828125 C685.68824641 1779.60280085 688.59192682 1782.30038639 691.5 1785 C695.63191462 1788.83135827 699.79039912 1792.61636472 704.0546875 1796.30078125 C706.3366529 1798.29406428 708.57228574 1800.33493027 710.8125 1802.375 C714.23229328 1805.46636801 717.71958524 1808.42459032 721.3125 1811.3125 C726.12585437 1815.20255931 730.6476145 1819.32871834 735.16113281 1823.55566406 C739.37393141 1827.47878593 743.76395352 1831.11896414 748.25390625 1834.72265625 C751.26319052 1837.21826469 754.13938654 1839.83765143 757 1842.5 C760.73327255 1845.97419243 764.52371111 1849.3006871 768.5 1852.5 C773.01858176 1856.1356405 777.27983329 1859.96836402 781.52172852 1863.91625977 C784.7329905 1866.88715628 788.02627815 1869.69961077 791.4375 1872.4375 C796.85908343 1876.80140459 801.92842117 1881.4842153 807.015625 1886.2265625 C811.60942351 1890.50857767 816.3543136 1894.60355969 821.140625 1898.66796875 C827.72419453 1904.26792438 834.1936397 1909.9536087 840.51953125 1915.84375 C843.9763798 1919.0621952 847.48040445 1922.20944872 851.05078125 1925.30078125 C855.08095661 1928.81406038 859.03146612 1932.41746334 863 1936 C864.66640851 1937.50028679 866.33307353 1939.00028872 868 1940.5 C869.24136719 1941.61761719 869.24136719 1941.61761719 870.5078125 1942.7578125 C872.14739879 1944.23292618 873.78799655 1945.70691652 875.4296875 1947.1796875 C881.48083485 1952.6121872 887.48400763 1958.09551002 893.47216797 1963.59716797 C895.46379876 1965.42585294 897.45812224 1967.25158725 899.45239258 1969.07739258 C901.96996985 1971.3830679 904.48520893 1973.69128656 907 1976 C907.50080078 1976.45955078 908.00160156 1976.91910156 908.51757812 1977.39257812 C915.31972419 1983.63873779 922.07975558 1989.92908921 928.8125 1996.25 C929.50561279 1996.89928467 930.19872559 1997.54856934 930.9128418 1998.2175293 C934.94631284 2002.01206548 938.89308993 2005.87103401 942.7565918 2009.83886719 C944.68129178 2011.69298018 946.6466862 2013.43266741 948.67156982 2015.17451477 C952.77388408 2018.75609397 956.65471557 2022.51321813 960.49829102 2026.36889648 C961.20022583 2027.06907898 961.90216064 2027.76926147 962.62536621 2028.49066162 C964.92071643 2030.78164844 967.21243364 2033.07622899 969.50390625 2035.37109375 C971.11223513 2036.97874801 972.72071236 2038.58625389 974.32933044 2040.19361877 C977.69050063 2043.55331945 981.04986786 2046.91480972 984.40795898 2050.27758789 C988.69704205 2054.57236776 992.99059939 2058.86264209 997.28552341 2063.15157986 C1000.60487798 2066.46730863 1003.92183197 2069.78543065 1007.23808098 2073.10426521 C1008.81967868 2074.6865266 1010.40201016 2076.26805489 1011.98510933 2077.84881401 C1014.20287961 2080.06402453 1016.41738504 2082.28245032 1018.63110352 2084.50170898 C1019.27597214 2085.14455338 1019.92084076 2085.78739777 1020.58525085 2086.44972229 C1024.38083415 2090.26278553 1027.98620465 2094.19173508 1031.49282742 2098.27252293 C1033.39674225 2100.45473435 1035.42195849 2102.48398958 1037.5 2104.5 C1040.78103368 2107.74256259 1043.85459996 2111.07047022 1046.85546875 2114.5703125 C1049.83448821 2117.9454493 1052.91961932 2121.21749566 1056 2124.5 C1060.76533757 2129.58694374 1065.47738554 2134.69462534 1070 2140 C1071.9572932 2142.29255669 1073.91590474 2144.58398314 1075.875 2146.875 C1076.39505615 2147.4839209 1076.9151123 2148.0928418 1077.45092773 2148.72021484 C1080.47957834 2152.25719364 1083.55187183 2155.74434963 1086.6875 2159.1875 C1090.84316265 2163.77357057 1094.75564701 2168.52702341 1098.64697266 2173.33789062 C1100.18583116 2175.22828195 1101.73834595 2177.10692707 1103.29296875 2178.984375 C1110.66463199 2187.88752187 1117.91572635 2196.86666919 1125 2206 C1126.19302734 2207.52947266 1126.19302734 2207.52947266 1127.41015625 2209.08984375 C1134.17665536 2217.81477675 1140.72958244 2226.69374383 1147.24609375 2235.60644531 C1148.8861024 2237.84456402 1150.53574607 2240.07523161 1152.1875 2242.3046875 C1161.66903792 2255.17704281 1170.38654259 2268.53768626 1179 2282 C1179.59345215 2282.92748047 1180.1869043 2283.85496094 1180.79833984 2284.81054688 C1189.7621363 2298.89242392 1198.02403951 2313.33860706 1206 2328 C1206.55187988 2329.01046387 1207.10375977 2330.02092773 1207.67236328 2331.06201172 C1228.27400696 2369.00403502 1243.98804318 2409.50939288 1252.3125 2451.9375 C1252.55516602 2453.16831299 1252.79783203 2454.39912598 1253.04785156 2455.66723633 C1256.27831497 2472.85106271 1257.38031753 2489.66107811 1257.3125 2507.125 C1257.31034485 2508.12956238 1257.3081897 2509.13412476 1257.30596924 2510.16912842 C1257.16927842 2550.12156292 1251.37899068 2589.43077039 1241 2628 C1240.66629395 2629.24023926 1240.33258789 2630.48047852 1239.98876953 2631.75830078 C1231.90286326 2661.39908446 1221.6274874 2689.97783121 1209 2718 C1208.72694031 2718.60821594 1208.45388062 2719.21643188 1208.17254639 2719.84307861 C1187.27266547 2766.37068201 1161.15788145 2810.56773289 1130 2851 C1129.2570166 2851.96607178 1129.2570166 2851.96607178 1128.49902344 2852.95166016 C1125.37346663 2857.00081796 1122.20438217 2861.0130042 1119 2865 C1117.88238281 2866.3921875 1117.88238281 2866.3921875 1116.7421875 2867.8125 C1107.38250759 2879.35275049 1097.65112301 2890.5219983 1087.50878906 2901.37792969 C1085.97384343 2903.02812043 1084.45025005 2904.68811534 1082.9296875 2906.3515625 C1075.06051546 2914.95423767 1067.12400701 2923.44540529 1058.25 2931.03125 C1055.91120579 2933.07769493 1053.63947171 2935.18379716 1051.36889648 2937.30517578 C1045.11474311 2943.1443229 1038.68820394 2948.6584143 1032 2954 C1030.89353347 2954.908943 1029.78811724 2955.8191656 1028.68359375 2956.73046875 C992.962697 2986.02494248 951.40015069 3010.78759139 906 3021 C905.22591797 3021.17644043 904.45183594 3021.35288086 903.65429688 3021.53466797 C872.36583186 3028.34443095 839.5131172 3024.60988883 812 3008 C808.81836632 3005.84531897 805.90004105 3003.51732188 803 3001 C802.20335937 3000.34644531 801.40671875 2999.69289063 800.5859375 2999.01953125 C788.79895117 2989.00241748 781.03067173 2976.5975967 774 2963 C773.40574219 2961.85402344 772.81148437 2960.70804688 772.19921875 2959.52734375 C762.74682973 2940.253162 756.70958593 2919.35611599 750.62722778 2898.83590698 C742.15236553 2870.29333655 733.64153719 2842.02862101 721 2815 C720.59813477 2814.13584473 720.19626953 2813.27168945 719.78222656 2812.38134766 C711.67320397 2795.11455298 701.87096142 2778.94780988 690 2764 C689.319375 2763.12730469 688.63875 2762.25460938 687.9375 2761.35546875 C666.66188894 2734.64362619 638.13388972 2706.56322249 603 2701 C577.27882172 2698.18406326 553.74764354 2714.42279626 534.69287109 2729.62744141 C525.6618469 2736.94968225 517.01364074 2744.70532827 508.49755859 2752.61572266 C506.98154261 2754.0170612 505.45517292 2755.40624961 503.92578125 2756.79296875 C496.99077986 2763.10210237 490.29924092 2769.61384284 483.73144531 2776.30541992 C480.61953294 2779.45915907 477.47557378 2782.4998512 474.11328125 2785.38671875 C469.32694054 2789.51215232 464.9301042 2793.99878659 460.5 2798.5 C455.40225927 2803.67956642 450.29953662 2808.75395007 444.7578125 2813.4609375 C442.92176752 2815.06849689 441.20789027 2816.75761464 439.5 2818.5 C436.53264677 2821.51413582 433.42654708 2824.29917333 430.22265625 2827.05859375 C427.67023117 2829.28804061 425.18112486 2831.58001382 422.6875 2833.875 C418.19501362 2837.97199927 413.58092718 2841.86120426 408.84765625 2845.67578125 C406.40113354 2847.6726002 404.00434491 2849.71513743 401.61791992 2851.78295898 C392.45836138 2859.68597159 382.73981019 2866.83417514 373 2874 C372.21367188 2874.58104492 371.42734375 2875.16208984 370.6171875 2875.76074219 C292.27443172 2933.55512262 195.35211039 2970.41810401 93.49609375 2971.203125 C92.13718128 2971.21014834 90.77826913 2971.21723515 89.4193573 2971.22438049 C85.09206677 2971.24380607 80.76482972 2971.24881587 76.4375 2971.25 C75.69942863 2971.25044186 74.96135727 2971.25088371 74.2009201 2971.25133896 C51.00894325 2971.25861855 28.04657204 2970.80584018 5 2968 C3.52817441 2967.82651705 2.05633156 2967.65318055 0.58447266 2967.47998047 C-53.31266999 2961.04367448 -107.2362757 2949.10626759 -157 2927 C-158.01674805 2926.55188965 -159.03349609 2926.1037793 -160.08105469 2925.64208984 C-201.53048991 2907.26779025 -239.14707124 2883.14505048 -273 2853 C-273.53947266 2852.51982422 -274.07894531 2852.03964844 -274.63476562 2851.54492188 C-281.7614746 2845.16372168 -288.59696579 2838.4990476 -295.375 2831.75 C-296.12434814 2831.00532471 -296.87369629 2830.26064941 -297.64575195 2829.4934082 C-302.30229987 2824.82336455 -306.70279488 2820.00036081 -311 2815 C-312.02164351 2813.84346486 -313.04503432 2812.68847046 -314.0703125 2811.53515625 C-321.59246295 2803.01070273 -328.6138919 2794.19568662 -335.42675781 2785.09667969 C-336.93941073 2783.08074808 -338.46375807 2781.07429809 -339.9921875 2779.0703125 C-353.9943037 2760.65580607 -366.77326395 2741.43121832 -379.39819336 2722.05810547 C-405.56861404 2677.6253395 -405.56861404 2677.6253395 -446 2649 C-473.12911173 2646.488586 -497.24812066 2663.00064121 -517.3359375 2679.59716797 C-522.04556999 2683.56746555 -526.55819108 2687.7339303 -531 2692 C-531.50805176 2692.4861377 -532.01610352 2692.97227539 -532.53955078 2693.47314453 C-539.58255583 2700.25129198 -545.94040199 2707.31638913 -552 2715 C-552.93171858 2716.14345758 -553.86541816 2717.285303 -554.80078125 2718.42578125 C-577.78060537 2746.55872538 -596.11451502 2778.08894208 -612.63134766 2810.35253906 C-613.901062 2812.80861869 -615.19760168 2815.24713971 -616.51171875 2817.6796875 C-623.25747657 2830.18391998 -629.22901746 2843.01678395 -635.13720703 2855.93310547 C-637.13287424 2860.29437299 -639.1425071 2864.64915497 -641.15234375 2869.00390625 C-647.73787001 2883.28259925 -654.28347263 2897.57638459 -660.6875 2911.9375 C-704.21970455 3009.39289836 -704.21970455 3009.39289836 -733.5 3021.5 C-734.98767362 3022.0355625 -736.48736578 3022.53963306 -738 3023 C-738.59683594 3023.18949219 -739.19367188 3023.37898438 -739.80859375 3023.57421875 C-766.24148512 3028.71002117 -794.85196961 3015.05128963 -818 3004 C-818.88977539 3003.57702637 -819.77955078 3003.15405273 -820.69628906 3002.71826172 C-852.93837345 2987.28443979 -882.77685831 2967.25038967 -910.25585938 2944.43994141 C-912.71166737 2942.41245602 -915.20322868 2940.42994304 -917.6875 2938.4375 C-922.95410912 2934.12773728 -927.92620334 2929.53244705 -932.89453125 2924.88671875 C-935.47121995 2922.47904455 -938.09953417 2920.13897001 -940.75 2917.8125 C-945.55025949 2913.50881908 -950.12188905 2908.98693822 -954.6875 2904.4375 C-955.40067383 2903.72891846 -956.11384766 2903.02033691 -956.84863281 2902.2902832 C-960.879183 2898.24802175 -964.73402743 2894.10743443 -968.46118164 2889.78393555 C-970.39102143 2887.54669307 -972.38154568 2885.36807934 -974.375 2883.1875 C-978.63356534 2878.45655599 -982.71751444 2873.61544355 -986.68652344 2868.63916016 C-987.59817556 2867.50145898 -988.51594415 2866.36864268 -989.43847656 2865.23974609 C-997.6656745 2855.16077566 -1005.10301286 2844.63102157 -1012.3125 2833.8125 C-1012.72843414 2833.18991302 -1013.14436829 2832.56732605 -1013.57290649 2831.9258728 C-1063.17224721 2757.50908946 -1093.86496419 2668.66091044 -1094.203125 2578.7109375 C-1094.20882507 2577.48758698 -1094.21452515 2576.26423645 -1094.22039795 2575.0038147 C-1094.22977649 2572.4273564 -1094.23635317 2569.8508865 -1094.24023438 2567.27441406 C-1094.24985546 2563.43271517 -1094.28091462 2559.59157205 -1094.3125 2555.75 C-1094.42558352 2529.38345107 -1091.4675231 2503.78056002 -1086 2478 C-1085.79568359 2477.03271973 -1085.59136719 2476.06543945 -1085.38085938 2475.06884766 C-1069.10497829 2400.18687731 -1030.78714855 2329.78272688 -988 2267 C-987.60280762 2266.41653809 -987.20561523 2265.83307617 -986.79638672 2265.23193359 C-983.55261351 2260.47285664 -980.28123873 2255.73330022 -977 2251 C-976.53609863 2250.32839844 -976.07219727 2249.65679688 -975.59423828 2248.96484375 C-967.64391315 2237.47519879 -959.25151131 2226.35602698 -950.74169922 2215.27636719 C-948.59599528 2212.47197364 -946.48233473 2209.64582527 -944.375 2206.8125 C-935.53180097 2194.98768597 -926.41567234 2183.37356262 -917 2172 C-915.5411501 2170.20875392 -914.08282976 2168.41707644 -912.625 2166.625 C-908.82895506 2161.98245027 -904.96604477 2157.40082952 -901.08203125 2152.83203125 C-898.2217818 2149.4618766 -895.40758766 2146.0599159 -892.625 2142.625 C-887.45601189 2136.27873346 -882.07700806 2130.12076198 -876.69824219 2123.95263672 C-875.01427371 2122.01641189 -873.3379238 2120.07387206 -871.6640625 2118.12890625 C-865.68825822 2111.19071645 -859.62874263 2104.354014 -853.4140625 2097.62890625 C-851.40875865 2095.44513685 -849.4413393 2093.24036075 -847.5 2091 C-844.0911994 2087.06676853 -840.56616377 2083.24309568 -837.0402832 2079.4152832 C-834.54888198 2076.70564461 -832.08846661 2073.97748399 -829.6875 2071.1875 C-825.71092258 2066.60060854 -821.54098067 2062.1950164 -817.39086914 2057.76586914 C-813.77686158 2053.90791012 -810.18683257 2050.03117892 -806.625 2046.125 C-800.19402919 2039.09141992 -793.64836139 2032.16703575 -787.10693359 2025.23632812 C-784.9902214 2022.98962086 -782.87907814 2020.73781005 -780.76953125 2018.484375 C-774.38532893 2011.67007905 -768.0103395 2004.87609101 -761.30859375 1998.37109375 C-759.36218202 1996.37198729 -757.54255319 1994.33480693 -755.72265625 1992.22265625 C-751.38517193 1987.22422194 -746.68273995 1982.63134646 -741.9609375 1978 C-738.72440659 1974.80095786 -735.58786975 1971.5805249 -732.625 1968.125 C-727.54865146 1962.23137086 -721.9203192 1956.87673235 -716.3828125 1951.421875 C-711.99698431 1947.07603917 -707.78770818 1942.67849221 -703.76953125 1937.9921875 C-699.64008107 1933.34313762 -695.10378944 1929.06849096 -690.671875 1924.7109375 C-686.49299119 1920.57469536 -682.51151504 1916.36103708 -678.6796875 1911.90234375 C-675.93080562 1908.7890752 -672.96646441 1905.90402118 -670 1903 C-665.74424556 1898.79323266 -661.63598044 1894.55950092 -657.76953125 1889.98828125 C-654.63174895 1886.46260534 -651.21920396 1883.20228151 -647.84375 1879.90625 C-645.03031604 1877.0968039 -642.44955518 1874.10593382 -639.84765625 1871.1015625 C-636.73911283 1867.56584081 -633.49058208 1864.16431867 -630.25 1860.75 C-621.93736076 1851.95284934 -613.65901193 1843.13153759 -605.734375 1833.98046875 C-603.72735462 1831.68866845 -601.67597149 1829.44003248 -599.625 1827.1875 C-595.76977614 1822.91689849 -592.12417485 1818.51226331 -588.5078125 1814.0390625 C-585.61167573 1810.52941389 -582.62304174 1807.10995408 -579.625 1803.6875 C-574.00450103 1797.24712486 -568.67070031 1790.63575942 -563.45410156 1783.86621094 C-561.93530683 1781.91697202 -560.38862382 1779.99264136 -558.8359375 1778.0703125 C-541.96800739 1757.0438409 -528.01080523 1734.30423388 -514.98248291 1710.76959229 C-513.67456751 1708.41384952 -512.35465471 1706.06493025 -511.03482056 1703.71585083 C-501.67413562 1687.04311183 -492.8184682 1670.13360983 -484.1361084 1653.09919739 C-481.92385792 1648.77086533 -479.66675146 1644.46818301 -477.38908386 1640.1739502 C-471.64774516 1629.34405313 -466.17973799 1618.39450504 -460.8125 1607.375 C-460.13442795 1605.98584885 -460.13442795 1605.98584885 -459.44265747 1604.56863403 C-451.84673968 1588.9931797 -444.55195173 1573.30116876 -437.4705658 1557.48623657 C-435.21450351 1552.45491758 -432.89700574 1547.45410202 -430.5637207 1542.45825195 C-416.20491677 1511.68660172 -403.01544797 1480.35901509 -390 1449 C-389.62679626 1448.10146301 -389.25359253 1447.20292603 -388.86907959 1446.27716064 C-355.82485404 1366.66342911 -326.07180629 1285.72690643 -298.09967041 1204.20397949 C-296.98361615 1200.95226431 -295.86565525 1197.70120872 -294.74755859 1194.45019531 C-275.45387252 1138.30460385 -257.23269512 1081.81204631 -240 1025 C-239.62161987 1023.7529126 -239.24323975 1022.5058252 -238.85339355 1021.22094727 C-218.50731429 954.12141297 -199.25232849 886.69876651 -181 819 C-180.66413879 817.7551886 -180.32827759 816.5103772 -179.98223877 815.22784424 C-157.40299575 731.48686574 -136.16564353 647.38471355 -82 411 C-81.70175449 409.6331456 -81.70175449 409.6331456 -81.39748383 408.23867798 C-63.13530281 324.50990679 -45.97001592 240.50653232 -17.53562927 90.88550568 C-16.9810461 87.89789282 -16.42616277 84.91033583 -15.87121582 81.92279053 C-14.90144875 76.70185556 -13.93202744 71.48085646 -12.96270943 66.2598381 C-12.38935329 63.17194514 -11.8157828 60.08409205 -11.24217224 56.99624634 C-10.86804779 54.98187715 -10.49394785 52.96750341 -10.11987305 50.953125 C-9.93704993 49.96864065 -9.75422682 48.9841563 -9.56586361 47.9698391 C-8.49458515 42.19804952 -7.42745423 36.42551252 -6.36403275 30.65227032 C-5.71737454 27.14367306 -5.06846801 23.63549391 -4.41913986 20.12738991 C-4.11877213 18.50129023 -3.81949047 16.87498952 -3.52135086 15.24847984 C-3.11582617 13.03647948 -2.70666882 10.82518112 -2.29663086 8.61401367 C-1.95504189 6.75881355 -1.95504189 6.75881355 -1.60655212 4.86613464 C-1 2 -1 2 0 0 Z M6 226 C2.58515044 242.21491817 -0.70469481 258.45235428 -3.93313599 274.70532227 C-9.25486497 301.47521864 -14.7223541 328.21225448 -20.35095215 354.91943359 C-21.03062371 358.14534889 -21.70923875 361.37148522 -22.38769531 364.59765625 C-29.83842908 400.01597664 -37.44768884 435.38618685 -45.54748535 470.66209412 C-47.15025899 477.64647258 -48.73477677 484.63492048 -50.3125 491.625 C-50.58634521 492.83687988 -50.86019043 494.04875977 -51.14233398 495.29736328 C-52.76023949 502.46825338 -54.36717831 509.64150408 -55.96528625 516.8168335 C-56.92359947 521.11811952 -57.88419751 525.41889431 -58.84481812 529.71966553 C-59.31326935 531.82003695 -59.780625 533.9206531 -60.24673462 536.02154541 C-62.96115309 548.25526921 -65.82018428 560.43767309 -68.89161682 572.58691406 C-70.89172882 580.5108239 -72.7420313 588.45596875 -74.5 596.4375 C-80.76182055 624.77302463 -87.98396987 652.86946898 -95.13427734 680.99029541 C-96.7359426 687.2899256 -98.33601597 693.58995692 -99.93359375 699.890625 C-100.26445638 701.19524752 -100.26445638 701.19524752 -100.6020031 702.52622604 C-104.04499461 716.11317928 -107.38682154 729.72100797 -110.63867188 743.35498047 C-111.99379781 749.01952065 -113.45411249 754.64681282 -114.98828125 760.265625 C-116.02307889 764.08518693 -117.01655349 767.91383383 -118.00585938 771.74536133 C-120.59239567 781.75461187 -123.29240291 791.7274909 -126.0625 801.6875 C-128.59451125 810.79429452 -131.0246418 819.91223001 -133.27758789 829.09179688 C-136.19065576 840.9163664 -139.5732765 852.60146367 -143.05908203 864.26782227 C-144.80565211 870.18525563 -146.34758992 876.14778538 -147.875 882.125 C-150.17643141 891.12075472 -152.77656635 899.99088457 -155.5324707 908.85693359 C-157.2101356 914.28986121 -158.74759476 919.71842637 -160.0625 925.25 C-161.63781331 931.7992813 -163.57862593 938.16956087 -165.64648438 944.57861328 C-167.56933643 950.56282767 -169.35107016 956.57706514 -171.0625 962.625 C-171.31241699 963.50816895 -171.56233398 964.39133789 -171.81982422 965.30126953 C-172.31247198 967.04341894 -172.80498781 968.78560565 -173.29736328 970.52783203 C-177.52276208 985.39454093 -182.03194231 1000.18266486 -186.50390625 1014.9765625 C-187.00286012 1016.63013112 -187.50155762 1018.28377713 -188 1019.9375 C-188.24886963 1020.76258057 -188.49773926 1021.58766113 -188.75415039 1022.43774414 C-190.01603011 1026.64278355 -191.24841483 1030.85359361 -192.4296875 1035.08203125 C-195.6783734 1046.71047414 -199.31770655 1058.15572778 -203.18359375 1069.59375 C-204.90591346 1074.69328735 -206.52724497 1079.8116438 -208.08203125 1084.96484375 C-209.15300261 1088.50588523 -210.26397365 1092.03389068 -211.375 1095.5625 C-212.74545253 1099.91628989 -214.08859279 1104.27565392 -215.37109375 1108.65625 C-218.30579282 1118.66140928 -221.48210898 1128.53406442 -225.02075195 1138.34399414 C-226.99573036 1143.87889772 -228.74660553 1149.44676988 -230.37890625 1155.08984375 C-232.98613892 1164.09562456 -235.89320396 1172.98723169 -238.875 1181.875 C-239.13734436 1182.66059296 -239.39968872 1183.44618591 -239.66998291 1184.25558472 C-242.85901797 1193.80221164 -246.12383319 1203.30523923 -249.69213867 1212.71801758 C-252.01975943 1218.90217939 -253.99067878 1225.17897708 -255.9362793 1231.4921875 C-257.45104262 1236.37394763 -259.15172497 1241.10306711 -261.13671875 1245.81640625 C-262.37103109 1248.93849041 -263.25417706 1252.14209741 -264.17822266 1255.36694336 C-264.95937373 1257.86982937 -265.8728194 1260.24413112 -266.87890625 1262.6640625 C-268.9727006 1267.8311146 -270.72706205 1273.07107316 -272.4375 1278.375 C-274.59414729 1284.96424575 -276.91109222 1291.36223746 -279.6875 1297.71875 C-281.83329331 1303.08323328 -283.57070826 1308.58690108 -285.32617188 1314.08984375 C-287.15068506 1319.73080923 -289.28792105 1325.15611929 -291.60351562 1330.61230469 C-294.11688733 1336.70942807 -296.37398038 1342.90345047 -298.65673828 1349.08984375 C-299.49650346 1351.36552472 -300.33973075 1353.63989829 -301.18359375 1355.9140625 C-304.15158896 1363.92493032 -307.07131859 1371.94968084 -309.90893555 1380.0078125 C-311.33951774 1383.93110975 -312.94807144 1387.76566846 -314.578125 1391.609375 C-316.28525579 1395.68022535 -317.9270724 1399.77492549 -319.5625 1403.875 C-319.89862305 1404.71627441 -320.23474609 1405.55754883 -320.58105469 1406.42431641 C-322.6124906 1411.5121316 -324.63611196 1416.60300177 -326.65625 1421.6953125 C-333.67252269 1439.34896606 -340.90222511 1456.90694535 -348.24794006 1474.42597961 C-350.23540254 1479.16729145 -352.20988615 1483.91377387 -354.17578125 1488.6640625 C-368.32053369 1522.7873375 -383.49944736 1556.47389974 -399 1590 C-399.3164447 1590.68509644 -399.6328894 1591.37019287 -399.95892334 1592.0760498 C-401.83972325 1596.14743125 -403.72454031 1600.21691534 -405.61508179 1604.28378296 C-406.45567821 1606.09215092 -407.29489422 1607.90116036 -408.1340332 1609.71020508 C-411.54430106 1617.01672104 -415.09160121 1624.24702827 -418.71484375 1631.44946289 C-420.86709201 1635.72827213 -422.99898535 1640.0170332 -425.12866211 1644.30711365 C-427.14866402 1648.37511522 -429.17341556 1652.44074587 -431.19824219 1656.50634766 C-432.22704216 1658.57398309 -433.25440267 1660.64233544 -434.28027344 1662.71142578 C-441.13043178 1676.52364448 -448.25520896 1690.13999756 -455.70385742 1703.63848877 C-458.07470853 1707.95806874 -460.37140319 1712.31620657 -462.67700195 1716.67089844 C-470.09123862 1730.66147242 -477.85298748 1744.42078722 -486 1758 C-486.44649902 1758.74636719 -486.89299805 1759.49273438 -487.35302734 1760.26171875 C-497.15921962 1776.5633187 -508.2231704 1792.07001925 -520 1807 C-520.8914688 1808.14778263 -521.78206602 1809.29624263 -522.671875 1810.4453125 C-528.07951218 1817.40840056 -533.64830782 1824.20375489 -539.375 1830.90625 C-541.83915964 1833.7955132 -544.23661 1836.73518458 -546.625 1839.6875 C-550.24834495 1844.13903808 -554.01963872 1848.42382455 -557.8828125 1852.66796875 C-559.78051169 1854.75823889 -561.64733415 1856.86986115 -563.5 1859 C-567.61083811 1863.71704465 -571.80817189 1868.35500129 -576 1873 C-576.721875 1873.804375 -577.44375 1874.60875 -578.1875 1875.4375 C-583.60705084 1881.47642808 -589.07417272 1887.47052678 -594.56738281 1893.44238281 C-595.51249722 1894.46996119 -596.45716852 1895.49794731 -597.40136719 1896.52636719 C-603.64453982 1903.32564705 -609.93191563 1910.08276615 -616.25 1916.8125 C-616.89928467 1917.50561279 -617.54856934 1918.19872559 -618.2175293 1918.9128418 C-622.14323806 1923.08574512 -626.1409878 1927.17001309 -630.22338867 1931.18994141 C-631.92237708 1932.92091572 -633.50277632 1934.7060603 -635.0625 1936.5625 C-639.23693888 1941.43107191 -643.83050501 1945.88246599 -648.40649414 1950.36938477 C-651.52284295 1953.44352752 -654.52310255 1956.55275477 -657.375 1959.875 C-662.2576343 1965.53753764 -667.64735456 1970.69242005 -672.97265625 1975.93359375 C-676.60339172 1979.52936227 -680.17057357 1983.12146956 -683.5 1987 C-688.33132386 1992.62812757 -693.68997378 1997.73436598 -698.97265625 2002.93359375 C-703.2652146 2007.18481125 -707.37206985 2011.50050645 -711.30664062 2016.08398438 C-714.21656767 2019.37653159 -717.3638848 2022.42489715 -720.5 2025.5 C-724.91085229 2029.86372895 -729.19763958 2034.23440974 -733.19921875 2038.98046875 C-736.18072479 2042.3241534 -739.40553982 2045.42510375 -742.59179688 2048.57226562 C-745.99151605 2051.94632654 -749.18793625 2055.42523895 -752.29296875 2059.07421875 C-754.98856326 2062.11524413 -757.91271052 2064.92067377 -760.8046875 2067.7734375 C-763.44006743 2070.44633174 -765.87766489 2073.25368303 -768.3203125 2076.1015625 C-769.98204576 2077.97970753 -771.71125525 2079.74305516 -773.5 2081.5 C-775.79326036 2083.75797943 -777.96428028 2086.05996504 -780.0625 2088.5 C-783.56112197 2092.55934919 -787.21017917 2096.46647149 -790.875 2100.375 C-795.6159071 2105.43416821 -800.31831944 2110.52030154 -804.9375 2115.69140625 C-806.32693467 2117.24662574 -807.72292268 2118.79601229 -809.125 2120.33984375 C-814.01333324 2125.72573948 -818.76625397 2131.21296635 -823.48095703 2136.75024414 C-826.65006073 2140.46030366 -829.88339074 2144.09607689 -833.1875 2147.6875 C-837.23420969 2152.09621567 -841.02753715 2156.66065675 -844.78515625 2161.31640625 C-846.95632827 2163.94708557 -849.20241357 2166.47942424 -851.5 2169 C-855.36533345 2173.24651686 -859.01398246 2177.6301311 -862.625 2182.09375 C-865.16665378 2185.2039316 -867.76608466 2188.25888841 -870.375 2191.3125 C-875.13431258 2196.901684 -879.69000186 2202.63009642 -884.19921875 2208.421875 C-886.52738549 2211.40883394 -888.89692597 2214.35976166 -891.27880859 2217.30395508 C-898.44539223 2226.17477276 -905.27298269 2235.28523799 -912.08105469 2244.43261719 C-913.95157933 2246.93521733 -915.83619745 2249.42642571 -917.7265625 2251.9140625 C-949.90526259 2294.32315664 -978.02053873 2339.49150351 -1002 2387 C-1002.4223291 2387.8338623 -1002.8446582 2388.66772461 -1003.27978516 2389.52685547 C-1021.80240963 2426.40637151 -1037.15287438 2467.66275305 -1042.69238281 2508.72314453 C-1042.91547766 2510.37440054 -1043.15379599 2512.02362271 -1043.40136719 2513.67138672 C-1056.04020716 2599.45928817 -1035.80969849 2688.48231097 -981 2793 C-980.45875488 2793.8357959 -979.91750977 2794.6715918 -979.35986328 2795.53271484 C-965.90533162 2816.25914571 -951.27322785 2836.26480118 -934.4140625 2854.375 C-932.54625253 2856.40601667 -930.74880554 2858.46237736 -928.95703125 2860.55859375 C-924.42320656 2865.75700543 -919.54196594 2870.60794614 -914.6574707 2875.47290039 C-913.06541034 2877.05959946 -911.4787701 2878.65157742 -909.89257812 2880.24414062 C-904.43462228 2885.70598454 -898.90155769 2891.01447505 -893 2896 C-891.99022658 2896.87684603 -890.98107269 2897.75440622 -889.97265625 2898.6328125 C-853.06479721 2930.23981125 -808.65770813 2962.00186505 -761 2974 C-760.33226562 2974.20496094 -759.66453125 2974.40992187 -758.9765625 2974.62109375 C-755.85773146 2975.21897243 -753.16655857 2975.2923519 -750 2975 C-726.76811617 2957.62694502 -714.63170696 2913.91768763 -703 2888 C-702.46028564 2886.79751617 -702.46028564 2886.79751617 -701.90966797 2885.57073975 C-701.16289295 2883.90683883 -700.41613825 2882.2429288 -699.66940308 2880.57901001 C-641.1116589 2750.10020324 -641.1116589 2750.10020324 -599 2696 C-598.12088634 2694.85302353 -597.24199223 2693.70587875 -596.36328125 2692.55859375 C-591.24882772 2685.92309312 -585.96124453 2679.58287617 -580.2578125 2673.44140625 C-578.32656147 2671.35311578 -576.4668194 2669.22908466 -574.625 2667.0625 C-566.51870347 2657.77641384 -557.64772695 2649.65116407 -548 2642 C-546.71029297 2640.90945313 -546.71029297 2640.90945313 -545.39453125 2639.796875 C-537.9928527 2633.54316728 -530.17780406 2628.17003545 -522 2623 C-520.99791504 2622.36312256 -520.99791504 2622.36312256 -519.97558594 2621.71337891 C-501.96599236 2610.37894018 -481.61850842 2600.69087111 -460 2600 C-458.75347656 2599.9484375 -457.50695312 2599.896875 -456.22265625 2599.84375 C-431.01523217 2599.11182359 -408.57170427 2610.32687111 -390.44921875 2627.265625 C-383.72412783 2633.73357739 -377.58166294 2640.54982982 -371.98632812 2648.015625 C-371.50555817 2648.65700912 -371.02478821 2649.29839325 -370.52944946 2649.95921326 C-370.02473114 2650.63267288 -369.52001282 2651.30613251 -369 2652 C-368.49697357 2652.66697403 -367.99394714 2653.33394806 -367.47567749 2654.02113342 C-358.67823009 2665.70263797 -350.43742099 2677.66783418 -342.46420288 2689.92453003 C-339.31175696 2694.76746573 -336.13794554 2699.59636381 -332.96484375 2704.42578125 C-332.35105362 2705.36043716 -331.73726349 2706.29509308 -331.10487366 2707.2580719 C-308.46385607 2741.69211534 -283.50746356 2774.43682352 -254.45254517 2803.72268677 C-253.04273377 2805.1444053 -251.63690321 2806.57006788 -250.23120117 2807.99584961 C-244.87284996 2813.36090654 -239.35083361 2818.31850052 -233.42919922 2823.05444336 C-231.50492617 2824.59560235 -229.63028949 2826.15949591 -227.78515625 2827.79296875 C-201.08054424 2851.27923441 -168.91524428 2868.79763562 -136.5625 2883.125 C-135.08185059 2883.78072998 -135.08185059 2883.78072998 -133.57128906 2884.44970703 C-127.76050415 2886.9629848 -121.90705681 2889.08430419 -115.88378906 2891.02954102 C-113.19921829 2891.93295863 -110.59799921 2892.93931781 -107.98046875 2894.01953125 C-78.11072831 2906.19395593 -43.86517686 2912.82088229 -12 2917 C-10.74590332 2917.16838379 -9.49180664 2917.33676758 -8.19970703 2917.51025391 C1.51946932 2918.80669942 11.25090865 2919.95316638 21 2921 C22.1152002 2921.12149414 23.23040039 2921.24298828 24.37939453 2921.36816406 C111.81285292 2930.43213081 199.50320999 2915.41523906 278 2876 C278.87414551 2875.56155762 279.74829102 2875.12311523 280.64892578 2874.67138672 C314.60122103 2857.51369367 346.22612564 2835.24077614 374.94677734 2810.3503418 C378.55526849 2807.2234254 382.21677116 2804.18136514 385.9375 2801.1875 C389.58671051 2798.22651779 392.96492093 2795.16702019 396.21972656 2791.78100586 C397.98930299 2790.01070141 399.82163143 2788.37442355 401.71875 2786.7421875 C405.83433561 2783.1649354 409.83917482 2779.48406276 413.8125 2775.75 C414.50537109 2775.1003125 415.19824219 2774.450625 415.91210938 2773.78125 C420.83968167 2769.14138582 425.6513157 2764.41049179 430.375 2759.5625 C432.41305225 2757.57297281 434.46476392 2755.72349469 436.625 2753.875 C442.02290319 2749.19614208 446.98832376 2744.08322294 452 2739 C457.63051899 2733.2890997 463.25625381 2727.63912607 469.35546875 2722.421875 C471.3386393 2720.70720973 473.1794884 2718.88552987 475 2717 C478.83618762 2713.11937778 482.85880117 2709.549599 487 2706 C487.96164062 2705.14921875 488.92328125 2704.2984375 489.9140625 2703.421875 C503.59715985 2691.38354894 518.1040042 2679.97515447 534 2671 C535.14082031 2670.33742188 536.28164062 2669.67484375 537.45703125 2668.9921875 C562.59744849 2654.72202071 593.30922516 2647.80631333 621.9375 2654.703125 C637.49873943 2659.4201257 652.56497976 2665.80906418 666 2675 C666.57717773 2675.38623535 667.15435547 2675.7724707 667.74902344 2676.17041016 C684.96916281 2687.74685498 701.73613154 2702.02046881 715 2718 C715.86625 2718.97839844 716.7325 2719.95679687 717.625 2720.96484375 C749.45935401 2756.98096358 769.38091291 2799.94963676 785 2845 C785.26151855 2845.7513623 785.52303711 2846.50272461 785.79248047 2847.27685547 C789.44283474 2857.81753842 792.54064844 2868.50813565 795.64257812 2879.21875 C797.37136929 2885.16372737 799.16522846 2891.08689213 801 2897 C801.35191406 2898.13727539 801.70382812 2899.27455078 802.06640625 2900.44628906 C811.46071605 2932.69674808 811.46071605 2932.69674808 830 2960 C830.60972656 2960.63421875 831.21945312 2961.2684375 831.84765625 2961.921875 C843.50170124 2973.12124473 859.12952791 2976.55540877 874.84326172 2976.41748047 C931.06187086 2974.54627284 982.2461211 2934.27541449 1022 2898 C1022.886875 2897.2059375 1023.77375 2896.411875 1024.6875 2895.59375 C1030.89369254 2889.994685 1036.89134968 2884.21246897 1042.8125 2878.3125 C1043.87029663 2877.2615918 1043.87029663 2877.2615918 1044.94946289 2876.18945312 C1048.93463874 2872.19252714 1052.73975379 2868.09391581 1056.42553711 2863.81958008 C1058.52406202 2861.3943504 1060.69889321 2859.04311728 1062.875 2856.6875 C1067.7957178 2851.28508543 1072.42792553 2845.69831141 1077 2840 C1077.91225289 2838.87979484 1078.82503803 2837.76002295 1079.73828125 2836.640625 C1104.08604816 2806.67666169 1125.81386557 2774.05994249 1144 2740 C1144.54881836 2738.9800293 1145.09763672 2737.96005859 1145.66308594 2736.90917969 C1172.03797056 2687.69802886 1191.88997415 2635.02430453 1202 2580 C1202.14034668 2579.24460937 1202.28069336 2578.48921875 1202.42529297 2577.7109375 C1209.91162889 2537.21947159 1212.59262335 2495.77438825 1203.51904297 2455.31689453 C1203.02906688 2453.1297482 1202.56143396 2450.93891676 1202.09765625 2448.74609375 C1198.77109624 2433.44247293 1193.96628758 2418.47239887 1188 2404 C1187.71189453 2403.28642334 1187.42378906 2402.57284668 1187.12695312 2401.83764648 C1167.31686895 2352.84428876 1139.76799213 2307.92544683 1108.70458984 2265.33837891 C1107.55697532 2263.76406611 1106.41150632 2262.18818732 1105.26806641 2260.61083984 C1098.13311449 2250.7701452 1090.81621434 2241.15014493 1083.0859375 2231.76953125 C1080.13720911 2228.18788266 1077.28141032 2224.54002852 1074.4375 2220.875 C1070.22387661 2215.46307708 1065.83453396 2210.22887161 1061.34399414 2205.04516602 C1058.28917481 2201.51708582 1055.30591379 2197.94518188 1052.375 2194.3125 C1048.57845783 2189.63192545 1044.56334728 2185.19665596 1040.48046875 2180.765625 C1037.99535768 2177.99482399 1035.64555667 2175.14948638 1033.3125 2172.25 C1030.27068057 2168.48113761 1027.12869506 2165.0105222 1023.65234375 2161.64453125 C1021.99154399 2159.99158397 1020.46377609 2158.27748362 1018.9375 2156.5 C1013.76963406 2150.51494367 1008.31195839 2144.79530386 1002.90136719 2139.03076172 C1001.03517723 2137.03757116 999.17672574 2135.03745172 997.3203125 2133.03515625 C990.21485864 2125.38776099 982.99346664 2117.89006182 975.54150391 2110.57836914 C972.51530376 2107.59331779 969.59926127 2104.58200343 966.83984375 2101.34765625 C962.10311839 2095.85720962 956.93693286 2090.78772688 951.80297852 2085.67260742 C950.066064 2083.941053 948.33456111 2082.20421641 946.60351562 2080.46679688 C941.52874205 2075.38929302 936.44302345 2070.42063691 930.97827148 2065.76000977 C925.65931847 2061.02789422 920.77325099 2055.80586579 915.77734375 2050.73828125 C911.22621268 2046.14740231 906.6347133 2041.70706741 901.72460938 2037.50195312 C899.36475972 2035.44677263 897.1823173 2033.24129885 895 2031 C891.41510388 2027.37118478 887.737064 2023.9593714 883.86328125 2020.64453125 C881.41788831 2018.48622847 879.15750999 2016.17014872 876.87426758 2013.84301758 C875.06616509 2012.0650619 873.20370549 2010.40287882 871.28125 2008.75 C866.39363897 2004.50088094 861.70100551 2000.05856967 857 1995.60546875 C853.04121368 1991.87091056 849.01582602 1988.23770809 844.90625 1984.66992188 C842.05169069 1982.16925773 839.2758475 1979.58730584 836.5 1977 C832.39515539 1973.19180605 828.25867645 1969.43682984 824.0234375 1965.7734375 C821.48498829 1963.54861908 818.99358224 1961.27496681 816.5 1959 C811.01542578 1954.00311022 805.46731169 1949.09686934 799.81640625 1944.2890625 C794.06028355 1939.38650018 788.35223355 1934.45946072 782.8125 1929.3125 C779.16586624 1925.92475627 775.44382599 1922.68102204 771.5625 1919.5625 C766.78458662 1915.71954521 762.31005016 1911.63168671 757.83837891 1907.44384766 C753.62570895 1903.52093146 749.23586445 1899.88088976 744.74609375 1896.27734375 C741.73680948 1893.78173531 738.86061346 1891.16234857 736 1888.5 C732.26672745 1885.02580757 728.47628889 1881.6993129 724.5 1878.5 C719.98141824 1874.8643595 715.72016671 1871.03163598 711.47827148 1867.08374023 C708.2670095 1864.11284372 704.97372185 1861.30038923 701.5625 1858.5625 C696.14587552 1854.20258694 691.08061704 1849.52524121 686 1844.78515625 C683.04123978 1842.02653661 680.01604915 1839.35388674 676.95703125 1836.70703125 C673.74346493 1833.90398039 670.59077863 1831.03340408 667.42578125 1828.17578125 C665.36297212 1826.32556437 663.2828763 1824.50055191 661.1875 1822.6875 C656.02248337 1818.18759617 651.02112473 1813.50885125 646.00463867 1808.8449707 C644.54027756 1807.49724486 643.06490946 1806.16145078 641.58325195 1804.83276367 C632.50693971 1796.64499714 623.87513087 1788.02711122 615.24389648 1779.37426758 C612.67870537 1776.80368689 610.10817269 1774.23853407 607.53710938 1771.67382812 C605.88249156 1770.01854992 604.22818375 1768.36296175 602.57421875 1766.70703125 C601.81678879 1765.95162552 601.05935883 1765.19621979 600.27897644 1764.41792297 C596.2091783 1760.33034498 592.29907235 1756.16019491 588.54338074 1751.78149414 C585.9912111 1748.83557474 583.2991966 1746.02218115 580.625 1743.1875 C575.89803624 1738.14089056 571.42490857 1732.96665852 567.1015625 1727.56640625 C565.01998573 1725.02440637 562.8496162 1722.60470665 560.625 1720.1875 C556.66419325 1715.83676927 553.03040717 1711.30192104 549.43139648 1706.65380859 C546.34464055 1702.67824059 543.17747727 1698.78420862 539.94970703 1694.92236328 C531.86983199 1685.24845359 524.38189396 1675.21229035 517 1665 C515.90800179 1663.49967258 514.81556145 1661.99966685 513.72265625 1660.5 C510.46058359 1656.01508171 507.22322979 1651.51290383 504 1647 C503.44344727 1646.22076172 502.88689453 1645.44152344 502.31347656 1644.63867188 C492.83711131 1631.32959529 483.83196646 1617.74359587 475 1604 C474.49823242 1603.22430664 473.99646484 1602.44861328 473.47949219 1601.64941406 C458.00674581 1577.71384958 443.70761311 1552.98070131 430 1528 C429.19320801 1526.53288574 429.19320801 1526.53288574 428.37011719 1525.03613281 C408.13354116 1488.16841751 388.69082395 1450.64193235 371.96630859 1412.03686523 C369.60865042 1406.60203936 367.17679909 1401.21084877 364.65234375 1395.8515625 C360.69549536 1387.43549037 356.99048252 1378.91590873 353.3125 1370.375 C352.96418121 1369.567211 352.61586243 1368.759422 352.25698853 1367.92715454 C332.38475761 1321.8168262 313.94930625 1275.08196426 296.70898438 1227.92529297 C296.0134412 1226.03650046 295.30372808 1224.15294533 294.59375 1222.26953125 C292.08937027 1215.60830508 289.71839708 1208.89784005 287.31640625 1202.19921875 C285.2516357 1196.44984082 283.15308733 1190.71681808 281 1185 C279.3083708 1180.34222645 277.65259713 1175.67174419 276 1171 C275.7313916 1170.24074219 275.4627832 1169.48148438 275.18603516 1168.69921875 C271.70121379 1158.83253183 268.2653532 1148.95450864 265.04125977 1138.99902344 C264.81623779 1138.31227539 264.59121582 1137.62552734 264.359375 1136.91796875 C264.07271973 1136.03274536 264.07271973 1136.03274536 263.78027344 1135.12963867 C263.12318938 1133.33622682 262.37402928 1131.5769409 261.60498047 1129.82861328 C259.76830215 1125.5838792 258.3654951 1121.22735619 256.9609375 1116.82421875 C256.67863785 1115.94960495 256.3963382 1115.07499115 256.10548401 1114.1738739 C255.50365811 1112.30918771 254.90317187 1110.4440687 254.30392456 1108.57855225 C249.98263491 1095.12958698 245.62811234 1081.7003938 240.9375 1068.375 C238.2721464 1060.80167808 235.79204179 1053.22051548 233.6015625 1045.49633789 C232.26472925 1040.79800449 230.6692445 1036.25610595 228.94921875 1031.6875 C227.91404698 1028.75664331 227.07484855 1025.80932965 226.25 1022.8125 C224.43259945 1016.27272008 222.3042958 1009.86494668 220.125 1003.4375 C217.22085193 994.85450166 214.57576127 986.24236493 212.14892578 977.51342773 C210.59036309 971.94841722 208.87072868 966.46753895 207 961 C204.5262279 953.76403607 202.38203438 946.46784696 200.32250977 939.10424805 C198.49803871 932.62651714 196.50790402 926.21554042 194.4375 919.8125 C192.05958355 912.45231313 189.86015613 905.07376435 187.84130859 897.60766602 C186.38701553 892.27348024 184.76091378 887.01109994 183.0625 881.75 C180.5495594 873.95352328 178.36080895 866.09684808 176.24804688 858.18359375 C174.66877135 852.31771322 172.94136215 846.52633654 171.0625 840.75 C168.29124334 832.20991224 165.96957338 823.57448038 163.67602539 814.89550781 C161.76525589 807.71323473 159.70612924 800.59677332 157.5 793.5 C154.61724839 784.22018542 152.04422551 774.8799267 149.55688477 765.48706055 C147.80176573 758.88897617 145.94129802 752.33913764 143.9375 745.8125 C141.47525073 737.7876023 139.3297372 729.70437615 137.25195312 721.57226562 C135.62838555 715.2687539 133.85075513 709.03379963 131.9375 702.8125 C129.65434604 695.37804906 127.6669904 687.90850054 125.82177734 680.35424805 C124.12455503 673.42222773 122.24643299 666.55272599 120.3125 659.68359375 C118.86104357 654.52762466 117.46318414 649.35744597 116.0625 644.1875 C114.08541298 636.89707107 112.03896045 629.63047626 109.9375 622.375 C107.74523378 614.79214685 105.76423991 607.17779865 103.89208984 599.51025391 C102.42235009 593.54607565 100.78253131 587.64645808 99.0625 581.75 C96.24282979 572.06931407 93.78465418 562.31602573 91.37109375 552.52734375 C89.98083521 546.89283678 88.50386805 541.28680636 86.9921875 535.68359375 C85.83212567 531.37675004 84.6957788 527.06395363 83.5625 522.75 C83.35230225 521.95037842 83.14210449 521.15075684 82.92553711 520.3269043 C82.49731713 518.69777459 82.06917633 517.06862407 81.64111328 515.43945312 C80.80249883 512.24850278 79.96282842 509.05783086 79.12304688 505.8671875 C78.49726722 503.48961716 77.87168091 501.11199599 77.24609375 498.734375 C76.42645352 495.61961416 75.60609781 492.5050431 74.78515625 489.390625 C74.37757035 487.84375891 73.97001851 486.29688384 73.5625 484.75 C73.25590454 483.58658081 73.25590454 483.58658081 72.94311523 482.3996582 C71.80871364 478.08998618 70.68150315 473.77854106 69.5625 469.46484375 C69.06261489 467.53903267 68.56261338 465.61325181 68.0625 463.6875 C67.81266357 462.72537598 67.56282715 461.76325195 67.30541992 460.77197266 C65.55037156 454.04063443 63.72594985 447.33051583 61.875 440.625 C59.8864267 433.41522558 58.05960203 426.19100695 56.39575195 418.89990234 C55.41427211 414.6384953 54.29814786 410.44431066 53.0625 406.25 C51.36157956 400.45623976 49.93244138 394.62829394 48.5625 388.75 C47.05494436 382.28789863 45.45512547 375.87822955 43.625 369.5 C41.01900066 360.39623637 38.83571726 351.19674328 36.67431641 341.97851562 C35.1506258 335.53978073 33.50372879 329.16490239 31.69799805 322.80078125 C29.15082577 313.71873652 26.86755742 304.58207101 24.64336586 295.41633606 C23.96942902 292.64111802 23.29110623 289.86700343 22.61161804 287.09313965 C20.68420692 279.22297589 18.76209619 271.35153496 16.84838867 263.47802734 C15.66858169 258.62530736 14.48194419 253.77430128 13.29088402 248.92433167 C12.84051292 247.08451629 12.39278388 245.24405208 11.94774818 243.40293884 C11.33008155 240.84838166 10.70378979 238.29608744 10.07543945 235.74414062 C9.80345985 234.6051255 9.80345985 234.6051255 9.52598572 233.44309998 C8.53855439 229.3166824 8.53855439 229.3166824 6 226 Z " fill="#000000" transform="translate(1094,0)"/>
</svg>
