<?xml version="1.0" encoding="UTF-8"?>
<svg version="1.1" xmlns="http://www.w3.org/2000/svg" width="2596" height="1147">
<path d="M0 0 C1.38412079 0.09828094 1.38412079 0.09828094 2.79620361 0.19854736 C101.28887561 7.21361291 198.97684342 24.44265151 293 55 C294.19710602 55.38838043 294.19710602 55.38838043 295.418396 55.78460693 C334.40239509 68.4689116 372.60054598 83.21801704 410 100 C410.61601074 100.27630249 411.23202148 100.55260498 411.86669922 100.83728027 C419.95271278 104.47067972 427.98979623 108.20269572 436 112 C437.16966309 112.55397461 438.33932617 113.10794922 439.54443359 113.67871094 C462.90234197 124.76328908 485.78267669 136.55471699 508.21972656 149.41064453 C510.90961715 150.94833225 513.60590517 152.47407686 516.3046875 153.99609375 C535.25337091 164.7059876 553.83893236 176.00220771 572 188 C572.90331055 188.59538574 573.80662109 189.19077148 574.73730469 189.80419922 C588.64749107 198.98455289 602.41792139 208.34068684 616 218 C617.12365967 218.79736572 617.12365967 218.79736572 618.27001953 219.61083984 C644.12753971 237.99652578 669.27036649 257.53015413 693.41601562 278.1171875 C696.75792088 280.96384154 700.14417724 283.74580852 703.5625 286.5 C708.63319551 290.6245599 713.43192479 294.99616599 718.22265625 299.4375 C721.11230673 302.10361915 724.05509004 304.69598353 727.0234375 307.2734375 C746.76116272 324.51469155 765.77634017 342.59555363 784.27880859 361.1484375 C786.65476675 363.52983489 789.03613331 365.90573243 791.41796875 368.28125 C792.95865462 369.82259559 794.49903084 371.36425076 796.0390625 372.90625 C796.73705963 373.6022229 797.43505676 374.2981958 798.15420532 375.01525879 C802.1010566 378.98080872 805.86971073 383.04728725 809.51364136 387.29345703 C811.40924816 389.46987285 813.42904882 391.49086826 815.5 393.5 C818.82426543 396.78515643 821.9463983 400.15780688 824.98828125 403.703125 C827.60280636 406.6882527 830.30054146 409.5917756 833 412.5 C837.41517115 417.26617085 841.76922634 422.06847708 846 427 C846.62527588 427.72775635 846.62527588 427.72775635 847.26318359 428.47021484 C849.78280676 431.40320684 852.29904572 434.33906381 854.8125 437.27734375 C856.91232 439.73163705 859.01652637 442.1820438 861.125 444.62890625 C867.18854724 451.67032079 873.14952236 458.77965443 879 466 C880.01915052 467.24900868 881.03870902 468.49768452 882.05859375 469.74609375 C892.07369373 482.01742456 901.86847328 494.44791755 911.49072266 507.02978516 C913.24389642 509.31838307 915.00313819 511.60227308 916.76171875 513.88671875 C924.08233426 523.41935678 931.24388171 533.02402664 938.11328125 542.88671875 C939.99345193 545.58236987 941.90450355 548.24968315 943.85546875 550.89453125 C953.73855583 564.30914879 962.88978017 578.20308633 972.0847168 592.09312439 C975.31023133 596.96491711 978.55708964 601.82195811 981.81396484 606.67285156 C1015.7596465 657.30136606 1046.10872732 710.47358588 1074.16796875 764.5546875 C1076.35099917 768.76117658 1078.55963411 772.95321302 1080.78173828 777.13916016 C1090.86944133 796.17034983 1100.28284099 815.49389552 1109.2660675 835.06890869 C1111.18495586 839.24508829 1113.12562107 843.41055364 1115.07850647 847.57093811 C1155.58344132 933.87109144 1189.03820834 1023.74349754 1223 1145 C1217.79476928 1144.34301408 1213.22160963 1142.77910291 1208.3359375 1140.96484375 C1207.48801636 1140.65482422 1206.64009521 1140.34480469 1205.76647949 1140.02539062 C1202.96754764 1139.00085733 1200.17133742 1137.96909102 1197.375 1136.9375 C1195.39880837 1136.2130551 1193.42240494 1135.48918773 1191.44580078 1134.76586914 C1187.33670872 1133.26160031 1183.22854097 1131.75484794 1179.12109375 1130.24609375 C1162.43092888 1124.11802374 1145.71724477 1118.05374923 1129 1112 C1128.16176697 1111.6963855 1127.32353394 1111.392771 1126.4598999 1111.07995605 C1053.68793705 1084.73711564 980.27645319 1060.05863116 906.38275146 1037.05487061 C903.05431106 1036.01693626 899.72733027 1034.97446566 896.40087891 1033.93017578 C811.35969636 1007.23601326 725.53979665 983.16171772 329.2116394 889.44198608 C326.99654878 888.99931029 324.78159075 888.55597579 322.56665039 888.11254883 C274.59403101 878.51404205 226.49338466 869.70939931 178.28244781 861.39376068 C176.06231036 861.01074959 173.84227355 860.62715972 171.62225342 860.24346924 C124.52429843 852.10895333 77.29767205 844.87176279 30 838 C29.27704239 837.89487343 28.55408478 837.78974686 27.80921936 837.68143463 C-59.45360198 824.99879878 -147.08710337 814.62832143 -592.77276611 785.05770862 C-595.06330819 784.99835966 -597.35381601 784.93778484 -599.64432526 784.87718296 C-628.38500695 784.12409859 -657.10868977 783.8362381 -685.85862875 783.83274293 C-689.25587331 783.83201492 -692.6531142 783.82984888 -696.05035782 783.82724571 C-708.09037775 783.81806299 -720.13038684 783.81390002 -732.17041016 783.81469727 C-741.88396889 783.81522466 -751.59748681 783.80828421 -761.31103516 783.79418945 C-824.24592863 783.70501775 -887.12092693 784.25028682 -950.03555298 785.87276077 C-954.72039559 785.99336374 -959.40533513 786.10965372 -964.09033203 786.22409058 C-964.80145826 786.24146991 -965.51258449 786.25884924 -966.24526 786.27675521 C-967.64395227 786.31093081 -969.04264464 786.34510242 -970.44133711 786.37926984 C-982.22591293 786.66785125 -994.01005663 786.9716528 -1005.79401779 787.28426552 C-1041.44309307 788.22996949 -1077.09178 789.16745007 -1112.75 789.6875 C-1114.64149277 789.71567307 -1114.64149277 789.71567307 -1116.57119751 789.74441528 C-1140.77868257 790.09444942 -1164.98263983 790.17818793 -1189.1875 789.625 C-1190.14491089 789.60321686 -1191.10232178 789.58143372 -1192.08874512 789.55899048 C-1319.21621683 786.57169168 -1319.21621683 786.57169168 -1356.3125 747.75 C-1371.94254865 728.98072382 -1374.24988198 707.64558739 -1373 684 C-1372.31089197 677.50221546 -1370.81931941 671.26515052 -1369 665 C-1368.79101074 664.26555664 -1368.58202148 663.53111328 -1368.36669922 662.77441406 C-1358.46654611 628.82467554 -1338.99704732 598.10584346 -1318 570 C-1317.17749756 568.89712646 -1317.17749756 568.89712646 -1316.33837891 567.77197266 C-1309.98859556 559.2888113 -1303.45891111 551.01207781 -1296.546875 542.98046875 C-1294.14605739 540.17092299 -1291.81648336 537.31667524 -1289.5 534.4375 C-1285.44174232 529.44831582 -1281.15484434 524.72329385 -1276.7734375 520.01953125 C-1274.6627814 517.74408266 -1272.61188183 515.42304398 -1270.57421875 513.08203125 C-1259.44400247 500.31900201 -1247.45785628 488.35470718 -1235.5 476.375 C-1234.84434052 475.71675232 -1234.18868103 475.05850464 -1233.51315308 474.38031006 C-1220.55381853 461.38067442 -1220.55381853 461.38067442 -1214.58203125 456.36767578 C-1212.79796993 454.82534376 -1211.15089331 453.1833547 -1209.5 451.5 C-1206.53264677 448.48586418 -1203.42654708 445.70082667 -1200.22265625 442.94140625 C-1197.67023117 440.71195939 -1195.18112486 438.41998618 -1192.6875 436.125 C-1188.17096163 432.00093324 -1183.50866984 428.12063135 -1178.75 424.28125 C-1175.91900422 421.93281032 -1173.20616402 419.49090098 -1170.5 417 C-1165.69213097 412.58488646 -1160.72590675 408.43345518 -1155.64599609 404.33691406 C-1153.04301114 402.2227127 -1150.46432359 400.07928671 -1147.8815918 397.94042969 C-1140.30108232 391.66818439 -1132.65112096 385.5015142 -1124.88232422 379.46435547 C-1122.81555804 377.85651325 -1120.75338346 376.24288488 -1118.69140625 374.62890625 C-1108.88442241 366.9627049 -1098.99583925 359.41806253 -1089 352 C-1088.25105469 351.443125 -1087.50210937 350.88625 -1086.73046875 350.3125 C-1077.10334162 343.16000754 -1067.42143467 336.09649083 -1057.59448242 329.22070312 C-1054.57727691 327.10790806 -1051.56544859 324.98778936 -1048.55786133 322.86132812 C-1037.14036036 314.80539616 -1025.58162994 306.99139408 -1013.90087891 299.32275391 C-1011.13081988 297.50382157 -1008.36403259 295.6799959 -1005.59765625 293.85546875 C-988.24772875 282.42937662 -970.78911646 271.16985465 -953 260.4375 C-951.8085682 259.7169205 -950.61716263 258.99629763 -949.42578125 258.27563477 C-922.81089549 242.19356583 -895.93857227 226.59384811 -868.52758789 211.90649414 C-865.72930388 210.40000594 -862.94289296 208.87256991 -860.15795898 207.34155273 C-847.15038573 200.19696133 -834.03806094 193.29433495 -820.8125 186.5625 C-819.34556702 185.81456177 -819.34556702 185.81456177 -817.84899902 185.05151367 C-792.23544401 171.99844197 -766.32653324 159.70672652 -740.09838867 147.94207764 C-738.04060056 147.01822774 -735.98402944 146.09171843 -733.92773438 145.16455078 C-650.551187 107.60822892 -564.16427272 76.55150974 -448 45 C-447.18585632 44.78986267 -446.37171265 44.57972534 -445.53289795 44.36322021 C-354.93137245 21.03100952 -262.22255338 6.53284622 -168.91467285 0.19854736 C-166.22502602 0.01532876 -163.53585366 -0.17376428 -160.84667969 -0.36376953 C-107.69507607 -4.03798798 -53.13194599 -3.86301719 0 0 Z " fill="#000000" transform="translate(1373,2)"/>
<path d="M0 0 C9.20777648 -0.14722435 18.2668069 0.24544987 27.4375 1.0625 C28.13099548 1.12357941 28.82449097 1.18465881 29.53900146 1.24758911 C44.61241499 2.59612151 59.61795603 4.49872411 74.625 6.4375 C75.75501434 6.5825296 76.88502869 6.7275592 78.04928589 6.87698364 C92.94168492 8.79825652 107.75245195 11.03682452 122.55065918 13.5821228 C125.62541183 14.10670028 128.70433415 14.60228701 131.78515625 15.08984375 C145.30842413 17.25037311 158.64883943 19.96027851 172 23 C173.85281485 23.41818917 175.70567912 23.83615941 177.55859375 24.25390625 C181.2176833 25.08064344 184.87495647 25.91489617 188.53125 26.75390625 C192.194003 27.59295965 195.86046125 28.41169692 199.53125 29.21484375 C211.31621161 31.80865808 222.89389988 34.84314404 234.46582031 38.26025391 C236.8550162 38.95767814 239.24925484 39.63082691 241.6484375 40.29296875 C321.35741468 62.36876419 399.37613393 93.60817751 480 138 C480.94472168 138.5259375 481.88944336 139.051875 482.86279297 139.59375 C496.39801738 147.1402782 509.78816476 154.90028191 523 163 C524.393396 163.85416504 524.393396 163.85416504 525.81494141 164.72558594 C548.05066063 178.40053469 569.73106977 192.8677804 591 208 C591.77037598 208.5475293 592.54075195 209.09505859 593.33447266 209.65917969 C604.40281468 217.54341402 615.25561159 225.6809109 626 234 C626.7640918 234.58990723 627.52818359 235.17981445 628.31542969 235.78759766 C637.31496625 242.73705392 646.23994859 249.75030228 655 257 C656.77068118 258.43768741 658.54151892 259.87518202 660.3125 261.3125 C665.74728484 265.75914214 671.08006862 270.31786648 676.3984375 274.90234375 C678.74782976 276.92744119 681.1067514 278.9402473 683.4765625 280.94140625 C690.42716809 286.82427175 697.17045538 292.88023262 703.79858398 299.12475586 C707.56457289 302.672052 711.38939922 306.12256528 715.3125 309.49609375 C717.69346621 311.61801966 719.9049607 313.89316962 722.13710022 316.16954041 C723.88633467 317.88831402 725.68746405 319.4781824 727.55639648 321.06469727 C732.80261874 325.62927963 737.68864241 330.54401232 742.59765625 335.46484375 C743.60063903 336.46715081 744.60377003 337.46930956 745.60704041 338.47132874 C747.69709138 340.55991534 749.78534888 342.65027388 751.87231445 344.74194336 C754.5269787 347.4023041 757.18610884 350.05814842 759.84661198 352.71266842 C761.91524949 354.77766606 763.98146699 356.84507204 766.04699516 358.9131794 C767.02572005 359.89256411 768.00516806 360.87122681 768.98539925 361.84910393 C773.99790581 366.85220749 778.91011201 371.87989469 783.49485779 377.28077698 C785.09076383 379.10367344 786.77045371 380.8040746 788.5 382.5 C791.49234375 385.44600215 794.25324172 388.52983007 796.9921875 391.7109375 C798.94355185 393.93564472 800.94168456 396.11153265 802.9543457 398.28076172 C807.76237477 403.46474081 812.31850101 408.77450125 816.75390625 414.28515625 C819.0883059 417.10673495 821.51990598 419.80590712 824 422.5 C828.05983645 426.91640144 831.89323821 431.46163522 835.66015625 436.12890625 C837.73763461 438.67806584 839.85047372 441.18805436 841.98657227 443.68774414 C847.72408801 450.4018583 853.21895798 457.27894576 858.63818359 464.25146484 C860.40781674 466.52362558 862.1896578 468.78603195 863.97216797 471.0480957 C865.8155076 473.38870054 867.65361435 475.73339255 869.49169922 478.078125 C870.53890684 479.41247566 871.58750945 480.74573224 872.63720703 482.078125 C880.81183039 492.45800644 888.71158584 502.9915491 896.38671875 513.74560547 C898.01040792 516.014544 899.643918 518.27604645 901.28125 520.53515625 C901.83095459 521.29376953 902.38065918 522.05238281 902.94702148 522.83398438 C903.95911114 524.23013888 904.97158312 525.62601639 905.98461914 527.02148438 C907.66374122 529.34248302 909.33340568 531.66998378 911 534 C911.41029449 534.57345154 911.82058899 535.14690308 912.24331665 535.73773193 C919.83247768 546.36434779 927.18515964 557.13367181 934.40942383 568.01123047 C936.06260362 570.50015601 937.71948901 572.98658225 939.37695312 575.47265625 C992.7447822 655.61014462 1040.65547143 740.56227101 1079.54199219 828.71240234 C1081.3136263 832.70718213 1083.13516815 836.67764732 1084.96240234 840.6472168 C1109.27167563 893.53369279 1130.19685918 948.08758663 1148.49609375 1003.3203125 C1148.71964035 1003.99218094 1148.94318695 1004.66404938 1149.17350769 1005.35627747 C1150.55629215 1009.54559834 1151.81356131 1013.75217174 1153 1018 C1144.61710955 1015.6519668 1136.45236389 1012.73483015 1128.25976562 1009.80712891 C1124.57137553 1008.48973287 1120.8799373 1007.18100409 1117.1875 1005.875 C1116.48044922 1005.62476074 1115.77339844 1005.37452148 1115.04492188 1005.11669922 C1109.98679989 1003.3326604 1104.90904505 1001.61676206 1099.80859375 999.95703125 C1097.59346785 999.20222479 1095.41292594 998.40596102 1093.2265625 997.57421875 C1088.08140571 995.62892826 1082.85475673 993.94533889 1077.62304688 992.25 C1076.86958984 992.0025 1076.11613281 991.755 1075.33984375 991.5 C1074.34005493 991.17515625 1074.34005493 991.17515625 1073.32006836 990.84375 C1071.4427981 990.16103443 1069.59908339 989.38651011 1067.76928711 988.58520508 C1063.71308734 986.82766613 1059.56122862 985.47584439 1055.3515625 984.13671875 C1053.62612423 983.58069463 1051.90070176 983.02462147 1050.17529297 982.46850586 C1049.27115662 982.17845673 1048.36702026 981.88840759 1047.43548584 981.58956909 C1029.51469095 975.83761157 1011.67256175 969.88246816 993.89306641 963.70776367 C985.51030354 960.80749599 977.11617065 958.05918027 968.58309937 955.63108826 C964.76318876 954.54226451 961.02884626 953.3397458 957.3125 951.9375 C953.45610399 950.48486652 949.59697381 949.28642828 945.625 948.1875 C939.65543522 946.52747926 933.80322223 944.61922698 927.9375 942.625 C919.90972409 939.90234105 911.83720723 937.47679563 903.67236328 935.2019043 C897.99177589 933.60613218 892.39501349 931.84693801 886.8125 929.9375 C880.2753474 927.70320155 873.70704921 925.76232348 867.03710938 923.96679688 C860.90372406 922.29694694 854.85992158 920.39400354 848.8125 918.4375 C841.57723536 916.10004822 834.35639864 913.97545534 826.9921875 912.08203125 C822.01234097 910.76730056 817.10646604 909.21126058 812.1875 907.6875 C800.4594797 904.06494925 788.62671034 900.89310666 776.76513672 897.74169922 C772.27080999 896.53617524 767.8013629 895.25209036 763.33203125 893.95703125 C759.29168387 892.79655633 755.23994098 891.67985379 751.1875 890.5625 C746.00857981 889.13454926 740.84591687 887.66699032 735.70043945 886.12280273 C728.09755413 883.84131109 720.46411916 881.79901255 712.74072266 879.96289062 C707.44439731 878.68287984 702.22690894 877.19130361 697.0078125 875.62890625 C688.02995427 872.9505287 678.97326684 870.66590481 669.875 868.4375 C667.57538619 867.8715202 665.27606423 867.30439217 662.9770813 866.7358551 C661.56918579 866.38795209 660.16092926 866.04150375 658.75216675 865.6971283 C653.50566276 864.40475731 648.28784817 863.01253619 643.06873512 861.61400318 C635.42076329 859.56978926 627.75026522 857.61524277 620.078125 855.6640625 C619.29813896 855.46560101 618.51815292 855.26713951 617.71453094 855.06266403 C613.57933787 854.01071524 609.4438392 852.9599773 605.30810547 851.91015625 C601.95693242 851.05925322 598.6063694 850.20601021 595.25634766 849.35058594 C577.06977321 844.70746031 558.88630398 840.20068838 540.54199219 836.21630859 C533.98805592 834.7910552 527.49285559 833.18198454 521 831.5 C509.88638383 828.6773217 498.73647401 826.10466905 487.53515625 823.65625 C481.93294874 822.43135928 476.33820705 821.17638443 470.74609375 819.90625 C449.6182627 815.1103097 428.46067036 810.49953871 407.24853516 806.09179688 C401.43928546 804.88437061 395.63180369 803.66852845 389.82421875 802.453125 C352.28734412 794.4990768 352.28734412 794.4990768 314.56347656 787.51367188 C307.90132461 786.37184863 301.29571247 785.04379745 294.6875 783.625 C283.09145942 781.13922862 271.43298727 779.07507539 259.7487793 777.05517578 C252.47871618 775.79778268 245.22363289 774.50564499 238 773 C227.23018791 770.7635773 216.48807996 768.64895486 205.59033203 767.12719727 C198.22523825 766.08812187 190.9129795 764.76834364 183.59194946 763.46139526 C147.15537558 756.86642455 147.15537558 756.86642455 110.55088806 751.31736755 C103.48973927 750.36532633 96.45696916 749.29555087 89.42578125 748.14453125 C75.92804049 745.96194274 62.40654406 743.96055162 48.875 742 C47.67820618 741.82602692 46.48141235 741.65205383 45.24835205 741.47280884 C28.93707147 739.10378887 12.62047074 736.84296567 -3.734375 734.796875 C-9.45868751 734.07916895 -15.16727265 733.27589872 -20.875 732.4375 C-32.55404615 730.7234664 -44.27543508 729.36142117 -56 728 C-56 727.34 -56 726.68 -56 726 C-54.92105469 725.78085937 -53.84210938 725.56171875 -52.73046875 725.3359375 C-42.20511553 723.136468 -32.0185628 720.35976377 -21.82519531 716.9453125 C-19.8136526 716.27224878 -17.79970897 715.60634245 -15.78417969 714.9453125 C24.24165135 701.79607319 62.40456835 684.22180873 97 660 C97.86794189 659.39792725 97.86794189 659.39792725 98.75341797 658.78369141 C125.65619439 640.08578046 151.90276328 618.16531375 173 593 C173.78117187 592.10796875 174.56234375 591.2159375 175.3671875 590.296875 C204.13336024 557.2727971 228.32594022 517.54585821 242.33056641 475.94995117 C243.47872123 472.60556292 244.74837403 469.30672759 246 466 C259.16581116 430.87614078 263.22918569 393.68065454 263.25 356.4375 C263.25067474 355.35040741 263.25134949 354.26331482 263.25204468 353.14328003 C263.16853017 268.24961548 232.08796386 185.89070842 176 122 C175.36707031 121.2678125 174.73414063 120.535625 174.08203125 119.78125 C172.4009272 117.8424023 170.70170178 115.92077144 169 114 C168.40832031 113.31550781 167.81664062 112.63101563 167.20703125 111.92578125 C156.8412 100.11635261 145.74926214 88.53766016 133.3515625 78.85546875 C131.07002379 77.05525133 128.94714883 75.15825258 126.8125 73.1875 C90.4114245 40.68197819 45.06296258 18.61647241 0 1 C0 0.67 0 0.34 0 0 Z " fill="#FEFEFE" transform="translate(1369,51)"/>
<path d="M0 0 C-0.53141602 0.32049316 -1.06283203 0.64098633 -1.61035156 0.97119141 C-34.14856373 20.66830614 -63.42829664 43.43419665 -90.375 70.25 C-91.02903809 70.89936523 -91.68307617 71.54873047 -92.35693359 72.21777344 C-96.77275867 76.64822417 -100.94239522 81.24031898 -105 86 C-105.81718506 86.95712891 -105.81718506 86.95712891 -106.65087891 87.93359375 C-150.01445277 139.11682848 -181.39967318 202.25982188 -191 269 C-191.22212158 270.44463623 -191.22212158 270.44463623 -191.44873047 271.91845703 C-198.76064893 321.14994248 -194.8746694 372.33462285 -181 420 C-180.77844238 420.77778809 -180.55688477 421.55557617 -180.32861328 422.35693359 C-177.42792315 432.52000622 -174.30991221 442.3360216 -170 452 C-169.30469615 453.65255618 -168.61227114 455.30632499 -167.921875 456.9609375 C-155.54748131 486.3870658 -140.31487945 514.38210721 -120.31738281 539.34912109 C-118.63548572 541.45679124 -117.00703631 543.60360154 -115.375 545.75 C-100.99166685 564.12674014 -84.9047113 581.99511012 -67 597 C-65.67935547 598.15435547 -65.67935547 598.15435547 -64.33203125 599.33203125 C-50.7382761 611.15480802 -36.1995597 622.01129624 -21.01708984 631.71044922 C-19.60216573 632.61502791 -18.19137013 633.52608152 -16.78369141 634.44189453 C-5.74998266 641.60500841 5.5652332 648.03821937 17.25 654.0625 C18.17900116 654.54183487 18.17900116 654.54183487 19.12677002 655.03085327 C26.00007878 658.56549873 32.90000023 661.94517177 40 665 C40 665.33 40 665.66 40 666 C33.19387216 666.09165027 26.48704023 665.83187851 19.703125 665.30078125 C17.57883513 665.14356797 15.45448206 664.98720727 13.33007812 664.83154297 C12.18740479 664.74725037 11.04473145 664.66295776 9.86743164 664.57611084 C-55.10160266 659.84166292 -120.29091338 656.82310709 -185.41374207 655.30709839 C-192.571154 655.13976597 -199.72739379 654.95418539 -206.88330078 654.73095703 C-295.92011083 651.95668321 -385.22942522 651.74571932 -522.90568542 654.56919861 C-535.56300324 654.97813512 -548.22185458 655.27188577 -560.8828125 655.54296875 C-561.90539658 655.56493568 -562.92798065 655.58690262 -563.98155212 655.60953522 C-570.12070248 655.74110206 -576.25989055 655.87083552 -582.39909363 655.99991608 C-590.73227793 656.17516466 -599.06542298 656.35199226 -607.3984375 656.53515625 C-608.25892889 656.55406229 -609.11942028 656.57296833 -610.00598717 656.59244728 C-622.05832546 656.86006153 -634.10410835 657.2148252 -646.1516571 657.65136719 C-657.32868566 658.05572819 -668.50514435 658.35310309 -679.6875 658.5625 C-680.79234741 658.58334656 -681.89719482 658.60419312 -683.03552246 658.62567139 C-708.51270054 659.08350651 -733.99243657 659.1103518 -759.47305679 659.12293625 C-762.71465562 659.12497774 -765.95624866 659.12873106 -769.19784546 659.13284302 C-829.64609543 659.19936098 -829.64609543 659.19936098 -856.37817383 656.38037109 C-858.86103374 656.11990861 -861.34524898 655.87759874 -863.83007812 655.63671875 C-873.70772781 654.64791772 -883.30384585 653.17468917 -893 651 C-893.89710693 650.8035791 -894.79421387 650.6071582 -895.71850586 650.40478516 C-909.58685011 647.26674393 -924.26925286 643.08793029 -934 632 C-940.29242168 621.85093277 -938.49020905 609.4690914 -936.1015625 598.30859375 C-929.40846512 570.35243463 -911.93112433 543.71921896 -895 521 C-894.21906982 519.95102539 -894.21906982 519.95102539 -893.42236328 518.88085938 C-878.8567086 499.4127481 -863.3853524 480.65538735 -846.7644043 462.90795898 C-845.44941029 461.48597501 -844.14836986 460.05106285 -842.85473633 458.60961914 C-834.659543 449.52434973 -826.03535656 440.88335562 -817.37426758 432.24389648 C-814.80368689 429.67870537 -812.23853407 427.10817269 -809.67382812 424.53710938 C-808.01854992 422.88249156 -806.36296175 421.22818375 -804.70703125 419.57421875 C-803.95162552 418.81678879 -803.19621979 418.05935883 -802.41792297 417.27897644 C-798.34039524 413.21918485 -794.18153754 409.31755305 -789.81315613 405.5716095 C-786.62353415 402.80690539 -783.57133797 399.89458474 -780.5 397 C-775.41400209 392.23347275 -770.30341454 387.52493167 -765 383 C-763.96722944 382.11353572 -762.93470072 381.22678965 -761.90234375 380.33984375 C-759.51258666 378.28781741 -757.12037501 376.23869984 -754.7265625 374.19140625 C-752.25825626 372.07969066 -749.79496691 369.9623536 -747.3359375 367.83984375 C-741.55049794 362.85088205 -735.74228351 357.91950061 -729.74609375 353.18359375 C-726.89901687 350.91970189 -724.08092991 348.62296591 -721.2644043 346.32128906 C-713.6120813 340.07133724 -705.85913965 333.98744928 -698 328 C-696.4280467 326.7867343 -694.85610016 325.5734591 -693.28515625 324.35888672 C-674.59573158 309.92484756 -655.48590975 296.08657763 -636.15869141 282.52148438 C-634.04057989 281.02860143 -631.93165555 279.52352814 -629.82421875 278.015625 C-573.75444501 238.09449287 -514.18929996 202.50776498 -453.58691406 169.94506836 C-450.82367062 168.45326238 -448.07437888 166.93733934 -445.32714844 165.41625977 C-431.69934831 157.89032026 -417.88617068 150.78797228 -403.95263672 143.84594727 C-400.39640402 142.07316988 -396.8445136 140.29191249 -393.29296875 138.50976562 C-376.99948906 130.35790107 -360.56649206 122.57869903 -344 115 C-342.70446198 114.40540482 -342.70446198 114.40540482 -341.38275146 113.79879761 C-306.45462778 97.77303194 -271.03433343 82.81356335 -235.125 69.125 C-233.85589783 68.64025711 -233.85589783 68.64025711 -232.56115723 68.14572144 C-223.06053965 64.52753264 -213.52076461 61.09227924 -203.85452271 57.94058228 C-200.22638682 56.7570856 -196.65027831 55.5256586 -193.125 54.0625 C-173.97163922 46.13922939 -153.83155087 39.9775186 -134 34 C-132.31360155 33.4837275 -130.62742382 32.96673376 -128.94140625 32.44921875 C-110.06261368 26.66175076 -91.19492978 20.87854733 -71.99609375 16.23828125 C-67.34105197 15.10367556 -62.71549586 13.86585548 -58.08790588 12.62460327 C-50.94624407 10.71167291 -43.78909763 8.86001498 -36.62890625 7.01782227 C-34.36936476 6.43604907 -32.11046277 5.8518354 -29.8515625 5.26757812 C-26.24368998 4.33644291 -22.63303324 3.41703948 -19.01940918 2.50848389 C-17.06559141 2.01651581 -15.1133314 1.51837397 -13.16113281 1.02001953 C-12.00709961 0.73626465 -10.85306641 0.45250977 -9.6640625 0.16015625 C-8.66068848 -0.08984131 -7.65731445 -0.33983887 -6.62353516 -0.59741211 C-4.01496318 -0.99770386 -2.46746951 -0.85823435 0 0 Z " fill="#FEFEFE" transform="translate(986,84)"/>
<path d="M0 0 C3.81880809 3.73850605 6.14111308 6.91352379 6.25 12.3125 C6.13370312 18.38901207 3.90028561 21.29750824 -0.375 25.4375 C-28.72547651 48.87726898 -82.57120374 48.20155634 -117.05834961 45.12182617 C-172.83534107 39.59744834 -172.83534107 39.59744834 -189.73046875 21.67578125 C-192.89913168 17.49314619 -193.54485357 14.26691788 -193 9 C-187.3499047 -2.07418678 -175.50858223 -7.18791614 -164.3125 -11.125 C-118.60083295 -25.32153577 -40.47004088 -31.17509247 0 0 Z " fill="#FDFDFD" transform="translate(1177,171)"/>
</svg>
